<svg width="96" height="96" viewBox="0 0 96 96" fill="none" xmlns="http://www.w3.org/2000/svg">
<circle cx="48" cy="48" r="48" fill="#E6F482"/>
<path d="M38.0807 46.5464C36.108 46.5464 34.5031 48.1513 34.5031 50.124C34.5031 52.0966 36.108 53.7016 38.0807 53.7016C40.0533 53.7016 41.6583 52.0967 41.6583 50.124C41.6583 48.1512 40.0533 46.5464 38.0807 46.5464ZM38.0807 52.157C36.9597 52.157 36.0476 51.245 36.0476 50.124C36.0476 49.0029 36.9597 48.0909 38.0807 48.0909C39.2016 48.0909 40.1137 49.003 40.1137 50.124C40.1137 51.2449 39.2016 52.157 38.0807 52.157ZM74.2275 73.0639H71.8441V64.0259C72.3434 63.2983 72.714 62.4046 72.9511 61.3489C73.1155 60.6184 73.4475 59.71 74.5657 59.1653C74.819 59.042 74.985 58.7904 74.9988 58.5091C75.0127 58.2277 74.8723 57.9611 74.6323 57.8134C73.7395 57.2638 72.797 56.91 71.8442 56.7586V54.1269H74.2276C74.5423 54.1269 74.8254 53.9361 74.9434 53.6445C75.0615 53.3529 74.991 53.019 74.765 52.8L72.4907 50.5961H74.2276C74.5423 50.5961 74.8254 50.4053 74.9434 50.1137C75.0615 49.8221 74.991 49.488 74.765 49.2691L61.8729 36.777C63.5809 35.6098 64.6387 33.6544 64.6387 31.5408C64.6387 28.0436 61.795 25.1986 58.2995 25.1986C54.8039 25.1986 51.9573 28.0437 51.9573 31.5408C51.9573 32.2513 52.0763 32.9532 52.3059 33.6176H39.6257C39.311 33.6176 39.0279 33.8083 38.9099 34.0999C38.7918 34.3915 38.8623 34.7256 39.0883 34.9445L41.3628 37.1485H38.0808C37.8869 37.1485 37.6931 37.2211 37.5434 37.3662L21.6153 52.8C21.3894 53.0189 21.3188 53.3529 21.4369 53.6445C21.555 53.9361 21.8382 54.1269 22.1527 54.1269H24.5328V73.0639H22.1527C21.7262 73.0639 21.3804 73.4097 21.3804 73.8362C21.3804 74.2627 21.7262 74.6085 22.1527 74.6085H74.2275C74.654 74.6085 74.9998 74.2627 74.9998 73.8362C74.9998 73.4097 74.654 73.0639 74.2275 73.0639ZM71.4442 61.0102C70.7628 64.0434 68.9797 64.7715 67.102 64.8292C67.8749 63.4418 68.8446 62.315 69.8598 61.2282C70.1511 60.9166 70.1343 60.4278 69.8227 60.1367C69.5109 59.8454 69.0221 59.8623 68.7311 60.1738C67.7573 61.2162 66.7935 62.3312 65.9837 63.682C65.7036 62.2281 66.1607 60.7451 67.3021 59.6338C68.435 58.5308 70.4502 57.7103 72.7272 58.5834C71.785 59.4951 71.5405 60.5823 71.4442 61.0103V61.0102ZM59.1163 61.7516C58.7517 61.5302 58.2767 61.6463 58.0553 62.0108C57.8339 62.3754 57.9501 62.8504 58.3146 63.0718C59.0418 63.5135 60.1879 64.3139 61.2514 65.4954C59.5123 65.6881 58.4023 64.9589 57.573 63.1641C57.4261 62.842 57.0667 62.0536 56.2266 61.4637C57.8276 60.5142 59.4784 60.8216 60.5229 61.4775C61.3571 62.0013 62.1654 62.9915 62.2447 64.3C61.1529 63.119 59.9963 62.2861 59.1163 61.7516ZM61.3443 60.1694C59.4846 59.0017 56.5573 58.8286 54.2096 61.075C54.0059 61.27 53.9246 61.5603 53.9976 61.8326C54.0704 62.1049 54.2857 62.3159 54.5597 62.383C55.5173 62.6179 55.922 63.2662 56.1691 63.8084C56.935 65.4663 58.0256 66.5048 59.4106 66.8951C59.8303 67.0134 60.2689 67.0729 60.738 67.0729C61.2264 67.0729 61.7484 67.0073 62.3155 66.8778C63.2119 68.256 63.8758 69.9845 63.8758 72.0848V73.064H51.6284V54.127H70.2994V56.6919C70.2005 56.6993 70.1018 56.7088 70.0032 56.7207C68.5877 56.8911 67.2457 57.5327 66.2244 58.5271C64.2564 60.4434 63.805 63.1822 65.0237 65.6008C64.7856 66.1858 64.5769 66.8125 64.4053 67.4896C64.1702 66.9837 63.8947 66.4888 63.5788 66.0058C64.2379 63.7187 63.3745 61.4445 61.3443 60.1695V60.1694ZM65.2017 49.0516L61.551 45.5142L68.5555 45.4034L72.3206 49.0516H65.2016H65.2017ZM63.2558 40.268L66.987 43.8835L59.9825 43.9944L56.2502 40.3778L63.2559 40.2681L63.2558 40.268ZM54.6813 38.8575L50.8678 35.1623H57.9867L61.6871 38.7478L54.6814 38.8575H54.6813ZM57.7986 44.0288L50.7972 44.1396L47.0632 40.5215L54.0658 40.4118L57.7986 44.0288ZM59.3671 45.5487L62.982 49.0515H55.8662L52.3656 45.6594L59.367 45.5487H59.3671ZM53.5017 31.5408C53.5017 28.8953 55.654 26.7432 58.2994 26.7432C60.9447 26.7432 63.094 28.8953 63.094 31.5408C63.094 33.248 62.1821 34.8188 60.7332 35.6728L58.8369 33.8353C58.6928 33.6956 58.5 33.6176 58.2995 33.6176H53.9755C53.666 32.9726 53.5017 32.2632 53.5017 31.5408ZM48.6482 35.1622L52.497 38.8916L45.4943 39.0013L41.5323 35.1622H48.6481H48.6482ZM55.0161 50.3784C55.1602 50.5181 55.3529 50.5961 55.5535 50.5961H70.2712L72.3207 52.5823H54.3213L39.9875 38.693H42.9567L55.0161 50.3784ZM34.1681 73.0639V58.4208H41.99V73.0639H34.1681ZM43.5346 73.0639V57.6485C43.5346 57.222 43.1888 56.8763 42.7623 56.8763H33.3958C32.9693 56.8763 32.6235 57.222 32.6235 57.6485V73.0639H26.0774V53.3546C26.0774 52.9281 25.7316 52.5823 25.3051 52.5823H24.0595L38.0807 38.9961L52.1018 52.5823H50.8562C50.4297 52.5823 50.0839 52.9281 50.0839 53.3546V73.0639H43.5347H43.5346ZM65.4204 73.0639V72.0847C65.4204 69.7367 65.7855 67.8969 66.3797 66.3669C66.5284 66.3725 66.6745 66.3758 66.8171 66.3758C68.0899 66.3758 69.1195 66.1495 70.0059 65.6813C70.1061 65.6283 70.2036 65.5717 70.2994 65.5127V73.0639H65.4202H65.4204ZM57.5272 23.3501V22.1649C57.5272 21.7383 57.8729 21.3926 58.2995 21.3926C58.726 21.3926 59.0718 21.7383 59.0718 22.1649V23.3501C59.0718 23.7767 58.726 24.1224 58.2995 24.1224C57.8729 24.1224 57.5272 23.7767 57.5272 23.3501ZM61.7246 24.0616L62.3188 23.0327C62.5321 22.6634 63.0045 22.5369 63.3738 22.7501C63.7432 22.9634 63.8696 23.4357 63.6563 23.805L63.0621 24.8339C62.9191 25.0817 62.6595 25.2201 62.3926 25.2201C62.2616 25.2201 62.1287 25.1868 62.0071 25.1165C61.6378 24.9031 61.5113 24.4309 61.7246 24.0616ZM64.7235 27.8296C64.5105 27.46 64.6375 26.9879 65.007 26.7748L66.0327 26.1837C66.4022 25.9705 66.8746 26.0976 67.0874 26.4672C67.3005 26.8368 67.1735 27.3089 66.804 27.522L65.7783 28.1131C65.6568 28.1832 65.5242 28.2164 65.3934 28.2164C65.1262 28.2164 64.8665 28.0777 64.7236 27.8296H64.7235ZM66.4903 30.7686H67.6756C68.1021 30.7686 68.4479 31.1143 68.4479 31.5409C68.4479 31.9674 68.1021 32.3132 67.6756 32.3132H66.4903C66.0638 32.3132 65.718 31.9674 65.718 31.5409C65.718 31.1143 66.0638 30.7686 66.4903 30.7686ZM66.8054 35.5607C67.1746 35.7745 67.3004 36.247 67.0865 36.6161C66.9433 36.8633 66.6842 37.0013 66.4176 37.0013C66.2863 37.0013 66.1532 36.9678 66.0312 36.8972L65.0055 36.303C64.6364 36.0891 64.5106 35.6166 64.7244 35.2476C64.9382 34.8785 65.4105 34.7525 65.7797 34.9664L66.8054 35.5607ZM52.9419 23.8037C52.7294 23.4339 52.857 22.9618 53.2269 22.7493C53.5966 22.5367 54.0687 22.6643 54.2812 23.0343L54.8722 24.0632C55.0847 24.433 54.9572 24.9051 54.5873 25.1176C54.466 25.1872 54.3338 25.2203 54.2034 25.2203C53.9359 25.2203 53.6758 25.0812 53.5331 24.8326L52.9421 23.8037H52.9419ZM49.5084 26.4673C49.7215 26.0977 50.1935 25.9707 50.5633 26.1838L51.5891 26.7749C51.9587 26.9879 52.0856 27.4601 51.8726 27.8297C51.7297 28.0778 51.4699 28.2165 51.2027 28.2165C51.0719 28.2165 50.9394 28.1833 50.8179 28.1132L49.7921 27.5221C49.4225 27.3091 49.2956 26.8369 49.5085 26.4673H49.5084ZM48.1482 31.541C48.1482 31.1145 48.494 30.7687 48.9205 30.7687H50.1088C50.5354 30.7687 50.8811 31.1145 50.8811 31.541C50.8811 31.9675 50.5354 32.3133 50.1088 32.3133H48.9205C48.494 32.3133 48.1482 31.9675 48.1482 31.541Z" fill="#082233"/>
</svg>
