<svg width="96" height="96" viewBox="0 0 96 96" fill="none" xmlns="http://www.w3.org/2000/svg">
<circle cx="48" cy="48" r="48" fill="#E6F482"/>
<path d="M40.9765 71.2924C41.0733 71.3258 41.1727 71.3418 41.2708 71.3417C41.5797 71.3417 41.8761 71.183 42.0432 70.9077L54.023 51.1696C54.1916 50.8918 54.1969 50.5452 54.0369 50.2626C53.8769 49.9797 53.5765 49.8049 53.2508 49.8049H48.1821L50.0276 34.6658C50.0788 34.2449 49.8282 33.8455 49.4261 33.7072C49.024 33.5689 48.5794 33.7292 48.3593 34.0919L36.3796 53.8299C36.2111 54.1077 36.2058 54.4543 36.3657 54.7369C36.5257 55.0198 36.8262 55.1946 37.1519 55.1946H42.2206L40.375 70.3338C40.3237 70.7546 40.5744 71.154 40.9765 71.2924ZM38.7526 53.3959L47.7289 38.6065L46.2674 50.5958C46.2363 50.8513 46.3165 51.108 46.4878 51.3007C46.659 51.4934 46.905 51.6037 47.1633 51.6037H51.65L42.6737 66.3931L44.1353 54.4038C44.1664 54.1483 44.0862 53.8916 43.9149 53.6989C43.7436 53.5062 43.4977 53.3959 43.2394 53.3959H38.7526ZM75.0976 39.7366H73.2638V33.4571C73.2638 31.7865 71.9013 30.4274 70.2265 30.4274C68.5518 30.4274 67.1859 31.7866 67.1859 33.4571V39.7366H64.9489V33.4571C64.9489 31.7865 63.5848 30.4274 61.9082 30.4274C60.2317 30.4274 58.8709 31.7866 58.8709 33.4571V39.7366H57.037C56.5385 39.7366 56.1344 40.1393 56.1344 40.636V42.9993C56.1344 44.2284 56.8204 45.3007 57.8307 45.8569V50.0666C57.8307 53.2033 59.6068 55.9334 62.209 57.314V60.0903C62.209 61.1507 63.0764 62.0135 64.1422 62.0135H64.5623C60.4174 68.9522 52.9815 73.2011 44.8012 73.2011C32.1212 73.2011 21.8053 62.9203 21.8053 50.2835C21.8053 47.2321 22.3957 44.2759 23.56 41.4876C23.5605 41.4865 23.5611 41.4856 23.5617 41.4845C24.0381 40.388 25.6218 37.7119 28.2064 35.4326C30.2017 33.673 32.3123 32.54 34.5128 32.0432C31.2844 34.3373 29.3236 36.8843 28.1825 38.8113C26.5614 41.5486 26.1891 43.6565 26.1741 43.745C26.1297 44.0051 26.2023 44.2716 26.3727 44.4738C26.5429 44.6759 26.7937 44.7933 27.0585 44.7949C27.1173 44.7952 27.1752 44.7954 27.2337 44.7954C36.9333 44.7952 40.3905 39.9379 43.4423 35.6493C46.2749 31.6687 48.7246 28.232 55.6844 28.5925C56.0907 28.6131 56.4554 28.3651 56.5856 27.9844C56.7158 27.6036 56.5765 27.1831 56.2444 26.9545C50.1405 22.7518 44.1327 20.7569 38.3817 21.0236C33.6086 21.2455 29.1397 23.121 25.7981 26.3045C23.4989 28.495 21.8343 31.2183 21.1107 33.9726C20.4097 36.6412 20.6321 39.1864 21.731 41.1991C20.5832 44.0887 20 47.1393 20 50.2835C20 56.8849 22.5797 63.0916 27.264 67.76C31.9483 72.4287 38.1765 75 44.8011 75C49.4667 75 54.0132 73.7011 57.9489 71.2437C61.6001 68.964 64.5907 65.7805 66.6339 62.0135H67.9923C69.0582 62.0135 69.9254 61.1507 69.9254 60.0903V57.3131C72.5276 55.9323 74.3038 53.2028 74.3038 50.0666V45.8569C75.3141 45.3007 76 44.2284 76 42.9993V40.636C76 40.1393 75.5959 39.7366 75.0974 39.7366H75.0976ZM27.0456 27.6045C32.1514 22.74 41.4446 20.2222 52.7713 26.8733C47.0092 27.5288 44.452 31.1201 41.9695 34.6086C39.1505 38.57 36.2404 42.6602 28.2441 42.9767C28.985 40.7168 31.4207 35.3624 38.5549 31.692C38.9134 31.5076 39.1055 31.1086 39.0255 30.7146C38.9457 30.3207 38.6132 30.0274 38.2111 29.9961C37.8579 29.9687 37.5054 29.9551 37.1538 29.9551C33.5755 29.9551 30.0889 31.3703 27.0101 34.0855C25.0947 35.7747 23.6876 37.6498 22.8037 39.0901C21.8089 35.6692 23.4412 31.0385 27.0456 27.6045ZM68.9911 33.4571C68.9911 32.7783 69.5452 32.226 70.2264 32.226C70.9076 32.226 71.4585 32.7783 71.4585 33.4571V39.7366H68.991V33.4571H68.9911ZM60.676 33.4571C60.676 32.7783 61.2288 32.226 61.9081 32.226C62.5875 32.226 63.1435 32.7783 63.1435 33.4571V39.7366H60.676V33.4571ZM57.9395 41.5353H74.195V42.9992C74.195 43.8063 73.5361 44.463 72.726 44.463H59.4086C58.5984 44.463 57.9395 43.8063 57.9395 42.9992V41.5353ZM68.1203 60.0902C68.1203 60.1577 68.0617 60.2145 67.9924 60.2145H64.1421C64.0727 60.2145 64.0141 60.1576 64.0141 60.0902V58.0145C64.6702 58.1827 65.3576 58.2724 66.0656 58.2724C66.7737 58.2724 67.4632 58.1826 68.1202 58.0141V60.0903L68.1203 60.0902ZM66.0658 56.4735C62.5203 56.4735 59.6358 53.5993 59.6358 50.0665V46.2618H72.4988V50.0665C72.4988 53.5993 69.613 56.4735 66.0658 56.4735Z" fill="#082233"/>
</svg>
