<svg width="96" height="96" viewBox="0 0 96 96" fill="none" xmlns="http://www.w3.org/2000/svg">
<circle cx="48" cy="48" r="48" fill="#E6F482"/>
<path fill-rule="evenodd" clip-rule="evenodd" d="M68.7546 72.5183H72.1528C72.6203 72.5183 73 72.8972 73 73.3638C73 73.8304 72.6203 74.2093 72.1528 74.2093H24.8472C24.3797 74.2093 24 73.8304 24 73.3638C24 72.8972 24.3797 72.5183 24.8472 72.5183H28.2454V53.542H28.2482C28.2463 53.5077 28.2454 53.4734 28.2454 53.439C28.2454 52.7312 28.6456 52.0367 29.4298 51.5061C30.3047 50.9141 31.7106 50.505 33.3023 50.505C34.894 50.505 36.2998 50.9141 37.1748 51.5061C37.959 52.0367 38.3592 52.7312 38.3592 53.439C38.3592 53.4734 38.3582 53.5077 38.3563 53.542H38.3592V72.5183H43.4431V44.3252C43.4431 43.6174 43.8433 42.9229 44.6275 42.3922C45.5025 41.8002 46.9083 41.3912 48.5 41.3912C50.0917 41.3912 51.4975 41.8002 52.3725 42.3922C53.1567 42.9229 53.5569 43.6174 53.5569 44.3252V72.5183H58.6408V33.5142C58.6408 32.8064 59.041 32.112 59.8252 31.5813C60.7002 30.9893 62.106 30.5802 63.6977 30.5802C65.2894 30.5802 66.6953 30.9893 67.5702 31.5813C68.3544 32.112 68.7546 32.8064 68.7546 33.5142V72.5183ZM29.9398 72.5183H36.6648V55.6665C35.7987 56.0954 34.6136 56.373 33.3023 56.373C31.991 56.373 30.8059 56.0954 29.9398 55.6665V72.5183ZM45.1375 72.5183H51.8625V46.5528C50.9964 46.9815 49.8113 47.2591 48.5 47.2591C47.1887 47.2591 46.0036 46.9815 45.1375 46.5528V72.5183ZM60.3352 72.5183H67.0602V35.7417C66.1941 36.1706 65.009 36.4482 63.6977 36.4482C62.3864 36.4482 61.2013 36.1706 60.3352 35.7417V72.5183ZM51.8625 44.3252C51.8625 44.1092 51.6609 43.9537 51.4216 43.7918C50.7639 43.3468 49.6965 43.0821 48.5 43.0821C47.3035 43.0821 46.2361 43.3468 45.5784 43.7918C45.3391 43.9537 45.1375 44.1092 45.1375 44.3252C45.1375 44.5412 45.3391 44.6965 45.5784 44.8586C46.2361 45.3036 47.3035 45.5682 48.5 45.5682C49.6965 45.5682 50.7639 45.3036 51.4216 44.8586C51.6609 44.6965 51.8625 44.5412 51.8625 44.3252ZM67.0602 33.5142C67.0602 33.2983 66.8587 33.1428 66.6193 32.9809C65.9616 32.5359 64.8942 32.2711 63.6977 32.2711C62.5012 32.2711 61.4339 32.5359 60.7761 32.9809C60.5369 33.1428 60.3352 33.2983 60.3352 33.5142C60.3352 33.7302 60.5369 33.8856 60.7761 34.0475C61.4339 34.4926 62.5012 34.7573 63.6977 34.7573C64.8942 34.7573 65.9616 34.4926 66.6193 34.0475C66.8587 33.8856 67.0602 33.7302 67.0602 33.5142ZM33.3023 52.1959C32.1058 52.1959 31.0384 52.4606 30.3807 52.9057C30.1413 53.0676 29.9398 53.223 29.9398 53.439C29.9398 53.655 30.1413 53.8104 30.3807 53.9723C31.0384 54.4173 32.1058 54.6821 33.3023 54.6821C34.4988 54.6821 35.5661 54.4173 36.2239 53.9723C36.4631 53.8104 36.6648 53.655 36.6648 53.439C36.6648 53.223 36.4631 53.0676 36.2239 52.9057C35.5661 52.4606 34.4988 52.1959 33.3023 52.1959ZM64.3185 24.7954C53.9167 33.6588 42.5343 39.2578 31.7702 42.8768C31.3271 43.0258 30.8461 42.7877 30.6968 42.3455C30.5475 41.9034 30.7861 41.4233 31.2292 41.2744C41.7664 37.7316 52.9091 32.2626 63.0993 23.6106L61.4711 23.6973C61.0042 23.7221 60.605 23.364 60.5801 22.898C60.5551 22.4321 60.914 22.0335 61.3809 22.0087L65.4552 21.7919C65.7094 21.7783 65.9563 21.8796 66.1274 22.0677C66.2986 22.2557 66.376 22.5106 66.3382 22.7618L65.7504 26.665C65.6809 27.1264 65.2492 27.4447 64.7867 27.3754C64.3243 27.3061 64.0054 26.8752 64.0748 26.4138L64.3185 24.7954Z" fill="#082233"/>
</svg>
