<svg width="96" height="96" viewBox="0 0 96 96" fill="none" xmlns="http://www.w3.org/2000/svg">
<circle cx="48" cy="48" r="48" fill="#E6F482"/>
<path d="M38.9305 39.8234C39.7578 39.8234 40.5558 40.0699 41.238 40.5362C41.6505 40.818 42.2106 40.7083 42.4892 40.2912C42.7678 39.8739 42.6593 39.3072 42.247 39.0253C41.2656 38.3546 40.1188 38 38.9305 38C35.6604 38 33 40.6917 33 44C33 47.3083 35.6604 50 38.9305 50C40.2272 50 41.3889 49.5708 42.29 48.7588C42.4668 48.5995 42.6348 48.4242 42.7894 48.2376C43.1091 47.8518 43.0592 47.2768 42.6778 46.9533C42.2965 46.6298 41.7281 46.6803 41.4084 47.0662C41.3098 47.1852 41.2032 47.2965 41.0914 47.3972C40.5175 47.9144 39.7904 48.1767 38.9305 48.1767C36.6541 48.1767 34.8022 46.3031 34.8022 44C34.8022 41.6969 36.6541 39.8234 38.9305 39.8234Z" fill="#082233"/>
<path d="M61.9999 40.1441C61.9936 39.6847 61.5748 39.3148 61.0719 39.3228C60.6797 39.3273 60.2696 39.3307 59.8872 39.3327C60.1691 38.9841 60.5191 38.5431 60.9486 37.9861C61.3364 37.4833 61.5903 37.0039 61.7035 36.5611C61.7104 36.5338 61.7159 36.5063 61.7197 36.4785L61.7482 36.2761C61.7532 36.2411 61.7556 36.206 61.7556 36.1707C61.7556 34.9737 60.6829 34 59.3641 34C58.2238 34 57.2369 34.7364 57.0173 35.7509C56.9198 36.2016 57.2434 36.6389 57.74 36.7275C58.2368 36.8158 58.7185 36.5223 58.816 36.0715C58.8671 35.8353 59.0977 35.6638 59.3641 35.6638C59.6571 35.6638 59.8981 35.8697 59.9209 36.1304L59.9082 36.2204C59.8598 36.3854 59.7398 36.6523 59.4469 37.0322C58.5369 38.2124 57.9941 38.8574 57.7026 39.2039C57.3235 39.6545 57.0946 39.9265 57.2459 40.3728C57.3352 40.6365 57.5635 40.8469 57.856 40.9354C57.9773 40.9723 58.0689 41 59.2188 41C59.6643 41 60.2687 40.9958 61.0952 40.9864C61.6012 40.9805 62.0063 40.6035 61.9999 40.1441Z" fill="#082233"/>
<path d="M50 50C53.3084 50 56 47.3084 56 44C56 40.6916 53.3084 38 50 38C46.6916 38 44 40.6917 44 44C44 47.3083 46.6916 50 50 50ZM50 39.8233C52.3031 39.8233 54.1767 41.697 54.1767 44C54.1767 46.303 52.3031 48.1767 50 48.1767C47.6969 48.1767 45.8233 46.3031 45.8233 44C45.8233 41.6969 47.6969 39.8233 50 39.8233Z" fill="#082233"/>
<path d="M76.8851 39.9638C75.687 38.3588 74.0336 37.1091 72.1774 36.3932C72.1287 34.6706 71.4397 33.0358 70.2331 31.8248C68.5013 30.0867 65.9817 29.4441 63.6537 30.1006C60.5113 26.2148 55.9042 24 50.9121 24C45.711 24 40.8508 26.458 37.7494 30.6152C36.7085 30.1098 35.5691 29.8455 34.4102 29.8455C30.867 29.8455 27.7833 32.3185 26.9418 35.7123C21.4009 36.0624 17 40.6979 17 46.3457C17 52.2204 21.762 56.9999 27.6152 56.9999H28.5859C29.0874 56.9999 29.4941 56.5918 29.4941 56.0883C29.4941 55.5849 29.0874 55.1768 28.5859 55.1768H27.6152C22.7636 55.1768 18.8164 51.2151 18.8164 46.3457C18.8164 41.4826 22.7527 37.5251 27.5954 37.5145C27.6254 37.5167 27.6553 37.5182 27.6857 37.5184C28.1392 37.5199 28.5267 37.1872 28.591 36.7358C29.0022 33.8472 31.5039 31.669 34.4102 31.669C35.5134 31.669 36.5944 31.9834 37.5362 32.5782C37.9516 32.8406 38.4993 32.7242 38.7733 32.3158C41.5 28.2505 46.0379 25.8233 50.9121 25.8233C55.5465 25.8233 59.8087 27.9714 62.6064 31.7167C62.8518 32.0454 63.2858 32.1685 63.6664 32.0179C65.4918 31.295 67.5651 31.7254 68.9489 33.1141C69.9464 34.1153 70.4571 35.5206 70.3498 36.9694C70.3184 37.3931 70.5828 37.7823 70.9872 37.9078C74.6934 39.0579 77.1836 42.4489 77.1836 46.3458C77.1836 51.2152 73.2364 55.1769 68.3848 55.1769H67.4141C66.9126 55.1769 66.5059 55.585 66.5059 56.0885C66.5059 56.5919 66.9126 57 67.4141 57H68.3848C74.238 57 79 52.2205 79 46.3458C78.9999 44.0239 78.2686 41.8171 76.8851 39.9638Z" fill="#082233"/>
<path d="M34.5795 62.6722L33.332 63.9928V53.8808C33.332 53.3944 32.9595 53 32.4999 53C32.0404 53 31.6679 53.3944 31.6679 53.8808V63.9928L30.4204 62.6722C30.0954 62.3282 29.5685 62.3282 29.2437 62.6722C28.9188 63.0162 28.9188 63.5739 29.2437 63.9178L31.9116 66.742C32.074 66.914 32.287 67 32.4999 67C32.7128 67 32.9258 66.914 33.0883 66.742L35.7563 63.9178C36.0812 63.5738 36.0812 63.0161 35.7563 62.6722C35.4315 62.3281 34.9046 62.3282 34.5795 62.6722Z" fill="#082233"/>
<path d="M42.5796 67.6044L41.3321 68.9457V53.8946C41.3321 53.4005 40.9595 53 40.5 53C40.0405 53 39.6679 53.4005 39.6679 53.8946V68.9457L38.4204 67.6044C38.0954 67.2551 37.5686 67.2551 37.2437 67.6044C36.9188 67.9538 36.9188 68.5203 37.2437 68.8695L39.9117 71.7379C40.0741 71.9126 40.2871 72 40.5 72C40.7129 72 40.9259 71.9127 41.0883 71.7379L43.7563 68.8695C44.0812 68.5201 44.0812 67.9537 43.7563 67.6044C43.4314 67.2551 42.9046 67.2551 42.5796 67.6044Z" fill="#082233"/>
<path d="M50.3767 62.6722L48.9509 63.9928V53.8808C48.9509 53.3944 48.5252 53 48 53C47.4748 53 47.0491 53.3944 47.0491 53.8808V63.9928L45.6233 62.6722C45.2519 62.3282 44.6498 62.3282 44.2785 62.6722C43.9072 63.0162 43.9072 63.5739 44.2785 63.9178L47.3276 66.742C47.5132 66.9139 47.7567 67 48 67C48.2433 67 48.4868 66.914 48.6724 66.742L51.7215 63.9178C52.0928 63.5738 52.0928 63.0161 51.7215 62.6722C51.3502 62.3282 50.7481 62.3282 50.3767 62.6722Z" fill="#082233"/>
<path d="M65.5796 62.6722L64.3321 63.9928V53.8808C64.3321 53.3944 63.9596 53 63.5001 53C63.0405 53 62.668 53.3944 62.668 53.8808V63.9928L61.4204 62.6722C61.0954 62.3282 60.5685 62.3282 60.2437 62.6722C59.9188 63.0162 59.9188 63.5739 60.2437 63.9178L62.9117 66.742C63.0742 66.9139 63.2872 67 63.5001 67C63.713 67 63.926 66.914 64.0884 66.742L66.7563 63.9178C67.0812 63.5738 67.0812 63.0161 66.7563 62.6722C66.4315 62.3282 65.9046 62.3282 65.5796 62.6722Z" fill="#082233"/>
<path d="M57.5796 67.6044L56.3321 68.9457V53.8946C56.3321 53.4005 55.9595 53 55.5 53C55.0405 53 54.6679 53.4005 54.6679 53.8946V68.9457L53.4204 67.6044C53.0954 67.2551 52.5686 67.2551 52.2437 67.6044C51.9188 67.9538 51.9188 68.5203 52.2437 68.8695L54.9117 71.7379C55.0741 71.9126 55.2871 72 55.5 72C55.7129 72 55.9259 71.9127 56.0883 71.7379L58.7563 68.8695C59.0812 68.5201 59.0812 67.9537 58.7563 67.6044C58.4314 67.2551 57.9046 67.2551 57.5796 67.6044Z" fill="#082233"/>
</svg>
