<svg width="96" height="96" viewBox="0 0 96 96" fill="none" xmlns="http://www.w3.org/2000/svg">
<circle cx="48" cy="48" r="48" fill="#E6F482"/>
<path d="M68.5185 25.0609C67.6941 24.9361 67.2273 26.0816 67.9086 26.5667C70.4281 28.479 71.9296 30.8541 72.4961 33.8292C72.583 34.2848 73.0232 34.5849 73.4803 34.4979C73.9359 34.411 74.236 33.9708 74.149 33.5137C73.7382 31.3602 72.9026 29.4829 71.6156 27.8425C76.5858 30.1839 77.6429 36.1257 75.8693 40.3093C73.7214 36.5309 66.6356 37.3693 66.7702 32.4776C66.7618 30.2428 67.439 29.1997 67.0632 27.1289C66.6875 25.396 65.643 23.9337 61.6108 22.0045C47.5078 14.7392 28.8049 21.1507 22.1312 35.5452C20.317 39.2522 19.3132 43.2059 19.1463 47.2956C19.1253 47.7723 19.5109 48.1718 19.9875 48.1704C20.4362 48.1704 20.8091 47.8157 20.8274 47.3629C21.2886 27.6897 43.348 14.5177 60.8775 23.5187C64.984 25.4829 65.2448 26.6873 65.4172 27.4836C65.5729 28.2014 65.4874 28.758 65.3598 29.5993C65.2518 30.3073 65.1172 31.1892 65.0878 32.437C65.0513 37.0328 69.127 38.0703 72.0712 39.2788C74.2794 40.1873 75.1487 42.4488 75.1557 42.4684C75.2679 42.7741 75.5469 42.9886 75.8707 43.018C76.196 43.0461 76.5072 42.8862 76.6713 42.6044C80.7834 35.4611 77.176 26.2835 68.5157 25.0609H68.5185Z" fill="#082233"/>
<path d="M60.8384 49.0273C58.8514 48.7856 57.0056 50.1703 57 52.3809V57.6203C57.007 59.8294 58.8514 61.2156 60.8384 60.9724C62.5821 60.9724 64 59.4691 64 57.6203V52.3809C64 50.5321 62.5821 49.0273 60.8384 49.0273ZM62.322 57.6203C62.322 58.4876 61.6564 59.1933 60.8384 59.1933H60.163C59.3436 59.1933 58.678 58.4876 58.678 57.6203V52.3809C58.678 51.5121 59.3436 50.8064 60.163 50.8064H60.8384C61.6564 50.8064 62.322 51.5121 62.322 52.3809V57.6203Z" fill="#082233"/>
<path d="M49.8369 49C49.3752 49 49 49.4006 49 49.8936V60.1063C49 60.5992 49.3752 60.9999 49.8369 60.9999C50.2986 60.9999 50.6738 60.5992 50.6738 60.1063V56.1758H52.6364C52.6782 56.1758 52.7215 56.1728 52.7633 56.1713L54.3702 60.4399C54.5013 60.7884 54.8151 60.9999 55.1471 60.9999C55.7246 61.0103 56.1514 60.3431 55.9241 59.7726L54.3855 55.6873C55.56 55.0037 56.1026 53.6662 55.984 52.3019C55.984 50.4819 54.4818 49 52.6364 49H49.8369ZM54.3102 52.3019C54.3925 53.2536 54.1191 54.043 53.0995 54.329C52.794 54.4407 51.0211 54.3692 50.6738 54.3886V50.7872H52.6364C53.5598 50.7872 54.3102 51.4664 54.3102 52.3019Z" fill="#082233"/>
<path d="M42 49.8936V60.1064C42 60.5994 42.3836 61 42.8556 61H47.1567C48.2804 60.9806 48.2818 59.2336 47.1567 59.2127H43.7113V55.8944H45.7178C46.1898 55.8944 46.5734 55.4937 46.5734 55.0007C46.5734 54.5078 46.1898 54.1071 45.7178 54.1071H43.7113V50.7873H47.1567C48.2804 50.7679 48.2818 49.0194 47.1567 49H42.8556C42.3836 49 42 49.4006 42 49.8936Z" fill="#082233"/>
<path d="M33.0008 49.8936C33.0008 50.3866 33.3915 50.7872 33.8722 50.7872H37.6831L33.1025 59.689C32.7888 60.2564 33.2376 61.0204 33.8737 60.9996H39.1295C40.274 60.9802 40.2754 59.2332 39.1295 59.2124H35.3187L39.8993 50.3106C40.0416 50.0336 40.0329 49.7 39.8746 49.4319C39.7163 49.1638 39.4331 49 39.1281 49H33.8722C33.3915 49 33.0008 49.4006 33.0008 49.8936Z" fill="#082233"/>
<path d="M52.0038 35.7873C53.3105 35.7694 53.3138 34.0179 52.0038 34H46.9962C46.4466 34 46 34.4006 46 34.8936V45.1064C46 45.5994 46.4466 46 46.9962 46H52.0038C52.5534 46 53 45.5994 53 45.1064C53 44.6134 52.5534 44.2127 52.0038 44.2127H47.9924V40.8929H50.3285C50.8781 40.8929 51.3247 40.4922 51.3247 39.9993C51.3247 39.5063 50.8781 39.1056 50.3285 39.1056H47.9924V35.7873H52.0038Z" fill="#082233"/>
<path d="M44.131 34C43.6518 34 43.2624 34.401 43.2624 34.8944V41.5188L39.6362 34.4755C39.2483 33.6631 37.9729 33.9866 38.0004 34.8944V45.1157C38.0193 46.2888 39.7173 46.2933 39.7376 45.1157V38.4913L43.3638 45.5345C43.7561 46.3499 45.0271 46.0205 44.9996 45.1157V34.8944C44.9996 34.401 44.6102 34 44.131 34Z" fill="#082233"/>
<path d="M60.0743 34H53.9386C53.4208 34 53 34.4006 53 34.8936C53 35.3866 53.4208 35.7873 53.9386 35.7873H56.0678V45.1064C56.0678 45.5994 56.4886 46 57.0065 46C57.5243 46 57.9451 45.5994 57.9451 45.1064V35.7873H60.0743C61.3086 35.7679 61.3086 34.0194 60.0743 34Z" fill="#082233"/>
<path d="M77.2225 46.2006C76.7584 46.2244 76.4023 46.6212 76.4261 47.0839C77.845 69.3466 52.3212 84.2192 33.6574 71.9683C27.5362 67.9796 29.9084 67.3487 30.4777 62.6337C31.0301 58.0701 27.0988 56.5812 24.3088 55.0488C22.2169 53.8977 21.6099 51.5535 21.6043 51.5325C21.4669 50.8595 20.5065 50.659 20.1125 51.2268C15.2096 57.8752 17.7908 67.3964 26.2408 69.5765C27.0483 69.7924 27.6358 68.7087 27.0161 68.1492C24.728 65.9663 23.504 63.437 23.2741 60.4171C23.239 59.9544 22.8324 59.6081 22.3712 59.6418C21.9085 59.6768 21.5608 60.0806 21.5959 60.5447C21.7613 62.7318 22.381 64.6905 23.4746 66.4654C18.8002 63.5801 18.4189 57.557 20.6523 53.5991C22.3628 57.5948 29.4934 57.557 28.8107 62.4052C28.655 63.5338 28.4475 64.3035 28.2639 64.9821C27.354 68.6357 27.9148 70.2383 32.7573 73.3914C46.0121 82.2073 65.2422 77.9255 73.5113 64.3806C76.8369 59.1665 78.4254 53.1546 78.1043 46.9969C78.0805 46.5329 77.6865 46.1782 77.2211 46.2006H77.2225Z" fill="#082233"/>
</svg>
