<svg width="85" height="57" viewBox="0 0 85 57" fill="none" xmlns="http://www.w3.org/2000/svg">
<path d="M80.6408 0H4.35906C1.96147 0 0 1.96147 0 4.3589V52.3076C0 54.7049 1.96147 56.6667 4.35906 56.6667H80.6409C83.0382 56.6667 85 54.7052 85 52.3076V4.3589C84.9998 1.96147 83.0384 0 80.6408 0ZM79.005 3.26901L45.0074 28.7693C44.3961 29.2345 43.4578 29.5255 42.4998 29.5212C41.5418 29.5255 40.6037 29.2345 39.9923 28.7693L5.99465 3.26901H79.005ZM60.8446 30.4519L79.3703 53.3366C79.3889 53.3595 79.4116 53.3769 79.4314 53.3977H5.56849C5.58808 53.3759 5.61099 53.3595 5.62958 53.3366L24.1552 30.4519C24.7228 29.7501 24.6153 28.7213 23.9122 28.1524C23.2104 27.5848 22.1816 27.6924 21.6139 28.3943L3.26917 51.0555V5.31232L38.0318 31.3844C39.3385 32.3575 40.9283 32.7859 42.4996 32.7902C44.0688 32.7869 45.6599 32.3585 46.9674 31.3844L81.73 5.31232V51.0552L63.3858 28.3943C62.818 27.6925 61.7882 27.5846 61.0875 28.1524C60.3846 28.72 60.2767 29.7501 60.8446 30.4519Z" fill="white"/>
</svg>
