<svg width="43" height="43" viewBox="0 0 43 43" fill="none" xmlns="http://www.w3.org/2000/svg">
<path d="M19.4954 16.674V18.6235H17.5459V21.5478H19.4954V30.3205H23.3944V21.5478H25.9873L26.3187 18.6235H23.3944V16.9176C23.3944 16.1281 23.4724 15.709 24.6908 15.709H26.3187V12.7749H23.7064C20.5872 12.775 19.4954 14.2371 19.4954 16.674Z" fill="#082233"/>
<path d="M21.4446 0.103027C9.60107 0.103027 0 9.7041 0 21.5476C0 33.3912 9.60107 42.9922 21.4446 42.9922C33.2882 42.9922 42.8892 33.3912 42.8892 21.5476C42.8892 9.7041 33.2882 0.103027 21.4446 0.103027ZM21.4446 41.0427C10.6777 41.0427 1.94953 32.3145 1.94953 21.5476C1.94953 10.7808 10.6777 2.05256 21.4446 2.05256C32.2115 2.05256 40.9397 10.7808 40.9397 21.5476C40.9397 32.3145 32.2115 41.0427 21.4446 41.0427Z" fill="#082233"/>
</svg>
