<svg width="48" height="46" viewBox="0 0 48 46" fill="none" xmlns="http://www.w3.org/2000/svg">
<path d="M25.2099 35.5571C24.1081 36.5863 22.7207 37.3072 21.4874 38.1551C20.9705 38.2776 20.4355 38.3501 19.8732 38.3818C16.3547 38.5677 12.8272 38.5995 9.31317 38.8443C7.91212 38.9395 6.48385 39.2977 5.15534 39.7693C2.589 40.6852 0.83882 42.4989 0 45.1559C0.290186 39.9416 2.08572 37.5974 6.99169 36.0467C12.7909 34.2149 18.6082 32.4376 24.4119 30.6194C25.3822 30.3156 26.4705 30.1251 26.7334 28.8465C27.8579 31.1499 27.3818 33.5212 25.2099 35.5571Z" fill="url(#paint0_linear_1001_32)"/>
<path d="M43.6504 19.7735C43.6096 19.9231 43.5688 20.0727 43.5189 20.2178C40.2951 29.8756 33.9019 36.0557 23.6275 37.756C22.8794 37.8784 22.1358 38.0371 21.4692 38.164C21.4738 38.1595 21.4828 38.155 21.4874 38.155C22.7207 37.3071 24.1081 36.5862 25.2099 35.5569C27.3818 33.5211 27.8579 31.1497 26.7334 28.8463C26.4387 28.2524 26.0397 27.6629 25.5364 27.0825C24.2169 25.5727 22.902 24.0583 21.4919 22.4441C22.1494 21.9998 22.7524 21.5645 23.3781 21.17C27.2412 18.7397 31.1995 16.4454 34.9538 13.8609C35.7156 13.6297 36.4819 13.3984 37.2436 13.1672C41.2382 11.9656 43.6594 13.9561 43.6458 18.1276C43.6458 18.7578 43.5959 19.3881 43.5687 20.0229C43.5959 19.9412 43.6232 19.8551 43.6504 19.7735Z" fill="url(#paint1_linear_1001_32)"/>
<path d="M47.0918 0C46.5885 6.88739 45.7406 13.4347 43.6504 19.7735C43.6232 19.8551 43.596 19.9412 43.5688 20.0229C43.596 19.3881 43.6459 18.7578 43.6459 18.1276C43.6595 13.9562 41.2382 11.9657 37.2436 13.1672C36.4819 13.3985 35.7156 13.6297 34.9539 13.8609C27.4135 16.1507 19.9095 18.5538 12.4145 20.9841C12.3828 20.9932 12.3465 21.0068 12.3148 21.0204C11.6619 20.1226 11.077 19.1568 10.6326 18.1503C9.4764 15.525 9.68951 13.6116 11.9657 11.544C12.1108 11.476 12.2558 11.417 12.41 11.3581C15.8514 10.0568 19.4516 9.09553 23.0562 8.34286C28.3068 7.24106 33.6616 6.61081 38.9076 5.47727C42.9657 4.60218 44.3804 3.42783 47.0918 0Z" fill="url(#paint2_linear_1001_32)"/>
<path d="M17.724 27.3499C13.8111 29.753 10.016 32.079 5.99871 34.5456C4.86516 29.3495 4.12155 24.4254 5.60876 19.4514C6.68336 15.8603 8.75548 12.9358 11.9203 11.562C11.9294 11.5574 11.9385 11.5529 11.9475 11.5484C11.9521 11.5484 11.9611 11.5438 11.9657 11.5438C9.68952 13.6114 9.47641 15.5248 10.6326 18.1501C11.077 19.1567 11.6619 20.1225 12.3148 21.0202C12.469 21.2333 12.6277 21.4464 12.7909 21.6505C14.0287 23.2238 15.4298 24.6612 16.7537 26.162C17.0621 26.5111 17.3432 26.8829 17.724 27.3499Z" fill="url(#paint3_linear_1001_32)"/>
<defs>
<linearGradient id="paint0_linear_1001_32" x1="5.38205" y1="48.9691" x2="22.0179" y2="25.5048" gradientUnits="userSpaceOnUse">
<stop stop-color="#00C200"/>
<stop offset="1" stop-color="#008F00"/>
</linearGradient>
<linearGradient id="paint1_linear_1001_32" x1="21.442" y1="38.1414" x2="39.8643" y2="12.1515" gradientUnits="userSpaceOnUse">
<stop stop-color="#00C200"/>
<stop offset="1" stop-color="#008F00"/>
</linearGradient>
<linearGradient id="paint2_linear_1001_32" x1="43.8635" y1="10.0568" x2="8.74187" y2="22.5121" gradientUnits="userSpaceOnUse">
<stop stop-color="#00C200"/>
<stop offset="1" stop-color="#008F00"/>
</linearGradient>
<linearGradient id="paint3_linear_1001_32" x1="4.17143" y1="33.2489" x2="17.0213" y2="15.1258" gradientUnits="userSpaceOnUse">
<stop stop-color="#008F00"/>
<stop offset="1" stop-color="#00C200"/>
</linearGradient>
</defs>
</svg>
