<svg width="44" height="44" viewBox="0 0 44 44" fill="none" xmlns="http://www.w3.org/2000/svg">
<path d="M16.1005 17.63C17.1824 17.63 18.0594 16.7529 18.0594 15.6711C18.0594 14.5892 17.1824 13.7122 16.1005 13.7122C15.0186 13.7122 14.1416 14.5892 14.1416 15.6711C14.1416 16.7529 15.0186 17.63 16.1005 17.63Z" fill="#082233"/>
<path d="M18.0593 18.6094H14.1416V29.3832H18.0593V18.6094Z" fill="#082233"/>
<path d="M21.9764 0C10.0759 0 0.428711 9.64723 0.428711 21.5477C0.428711 33.4482 10.0759 43.0954 21.9764 43.0954C33.8769 43.0954 43.5241 33.4482 43.5241 21.5477C43.5241 9.64723 33.8769 0 21.9764 0ZM21.9764 41.1365C11.1578 41.1365 2.38762 32.3663 2.38762 21.5477C2.38762 10.7291 11.1578 1.95891 21.9764 1.95891C32.7951 1.95891 41.5652 10.7291 41.5652 21.5477C41.5652 32.3663 32.7951 41.1365 21.9764 41.1365Z" fill="#082233"/>
<path d="M27.2262 18.6094C24.2879 18.6094 23.9353 20.3528 23.9353 20.3528V18.6094H20.0176V29.3832H23.9353V23.5066C23.9353 23.5066 23.9353 21.5477 25.6004 21.5477C26.5798 21.5477 26.8736 22.4194 26.8736 23.5066V29.3832H30.7913V23.5066C30.7913 20.4409 29.4593 18.6094 27.2262 18.6094Z" fill="#082233"/>
</svg>
