<svg width="188" height="85" viewBox="0 0 188 85" fill="none" xmlns="http://www.w3.org/2000/svg">
<path d="M0 47.3139C0 37.8874 6.1982 31.6892 15.0217 31.6892C17.9508 31.6892 21.8637 32.3784 24.0583 33.453L23.4552 38.7036C21.1292 37.7559 17.8147 36.9806 15.1486 36.9806C8.86429 36.9806 6.0259 41.3696 6.0259 47.2233C6.0259 53.3761 9.16808 57.7244 15.4071 57.7244C16.654 57.7244 18.0777 57.5521 19.5377 57.2528V51.8708H16.2232V47.3094H25.0467V60.7396C22.8522 61.9865 18.1593 63.0203 14.7179 63.0203C6.28435 63.0248 0 56.8266 0 47.3139Z" fill="#303030"/>
<path d="M40.4993 45.5957H38.5179C36.7541 45.5957 35.2034 46.5433 34.6004 47.7494V62.4265H29.2637V40.9073H34.2558L34.3827 43.188C35.5027 42.0273 37.6519 40.5627 40.1049 40.5627H41.524L40.4903 45.6002L40.4993 45.5957Z" fill="#303030"/>
<path d="M47.8628 52.8231C48.4658 56.8268 51.4357 58.4636 54.2741 58.4636C56.2963 58.4636 59.1393 57.6475 60.9031 56.6998L61.1615 61.2204C59.5247 62.0819 57.0309 62.8572 53.9749 62.8572C46.1852 62.8572 42.313 57.7336 42.313 51.7123C42.313 45.6909 46.0129 40.5627 52.6418 40.5627C58.0647 40.5627 62.1091 44.2218 62.1091 49.9031C62.1091 50.8508 61.9822 51.7984 61.7645 52.8322H47.8628V52.8231ZM47.9898 49.2094H56.6818C56.6818 47.2733 55.6933 44.9473 52.8096 44.9473C49.9258 44.9473 48.5067 46.7564 47.9898 49.2094Z" fill="#303030"/>
<path d="M70.0254 52.8231C70.6284 56.8268 73.5983 58.4636 76.4367 58.4636C78.4589 58.4636 81.3019 57.6475 83.0657 56.6998L83.3241 61.2204C81.6873 62.0819 79.1935 62.8572 76.1375 62.8572C68.3478 62.8572 64.4756 57.7336 64.4756 51.7123C64.4756 45.6909 68.1755 40.5627 74.8044 40.5627C80.2273 40.5627 84.2717 44.2218 84.2717 49.9031C84.2717 50.8508 84.1448 51.7984 83.9271 52.8322H70.0254V52.8231ZM70.1569 49.2094H78.8489C78.8489 47.2733 77.8604 44.9473 74.9767 44.9473C72.093 44.9473 70.6738 46.7564 70.1569 49.2094Z" fill="#303030"/>
<path d="M101.574 62.4218V50.8461C101.574 46.8425 100.328 44.9472 97.3123 44.9472C95.5032 44.9472 94.2563 45.6364 93.2679 46.7971V62.4218H87.9312V40.9027H92.9233L93.0094 42.1949C94.2563 41.2926 96.0654 40.5581 97.7431 40.5581C104.458 40.5581 106.911 44.7749 106.911 50.8461V62.4218H101.574Z" fill="#303030"/>
<path d="M110.312 66.8109C110.312 65.6502 110.742 63.238 114.057 62.0773C112.248 61.2158 111.903 60.055 111.903 59.4066C111.903 58.6766 112.375 57.2121 114.401 56.2645C111.386 54.0699 110.742 51.5308 110.742 49.3771C110.742 44.7296 113.757 40.8982 119.353 40.8982C121.334 40.8982 123.012 41.3697 124.735 42.4489C126.027 41.7597 127.75 41.2428 129.858 41.2428H130.203L129.731 43.8273H128.743C128.444 43.8273 127.151 43.9134 126.245 44.1265C127.795 45.9765 128.181 47.6133 128.181 49.164C128.181 53.4261 125.165 57.5567 119.656 57.5567C118.668 57.5567 117.548 57.4298 116.646 57.1713C116.043 57.5159 115.612 57.9466 115.612 58.4635C115.612 59.5381 117.163 59.8419 122.155 60.7034C125.469 61.2611 130.765 62.4264 130.765 66.557C130.765 69.9576 127.151 73.186 120.178 73.186C112.86 73.186 110.321 69.613 110.321 66.8155L110.312 66.8109ZM117.371 63.0249C115.435 63.628 114.016 65.2194 114.016 66.7248C114.016 68.6609 116.297 70.1662 120.341 70.1662C124.644 70.1662 126.839 68.4432 126.839 66.8109C126.839 65.3056 125.029 64.2265 121.203 63.5418C121.116 63.5418 117.888 63.1111 117.371 63.0249ZM114.442 49.2501C114.442 52.5646 116.51 54.5868 119.48 54.5868C122.708 54.5868 124.472 52.1747 124.472 49.1186C124.472 45.8042 122.363 43.995 119.393 43.995C116.165 43.995 114.442 46.1896 114.442 49.2456V49.2501Z" fill="#303030"/>
<path d="M135.92 51.8753C136.478 57.7289 139.838 59.4065 143.842 59.4065C145.778 59.4065 148.018 59.0211 149.908 58.1596L150.425 61.2156C148.788 61.9456 146.422 62.8525 143.365 62.8525C135.92 62.8525 131.958 57.7742 131.958 51.7075C131.958 45.6408 135.744 40.9026 142.286 40.9026C147.537 40.9026 151.368 44.1309 151.368 49.8122C151.368 50.4153 151.327 51.1453 151.196 51.8798H135.916L135.92 51.8753ZM136.265 49.2092H147.369C147.369 46.2393 145.732 44.344 142.205 44.344C138.677 44.344 137.04 46.1531 136.265 49.2092Z" fill="#303030"/>
<path d="M184.123 62.4217V50.0253C184.123 46.067 182.659 44.344 179.172 44.344C174.221 44.344 173.577 47.8308 173.577 50.1976V62.4217H169.705V50.8007C169.705 45.6363 167.683 44.344 164.753 44.344C162.341 44.344 160.233 45.2055 159.158 47.1008V62.4217H155.286V41.3333H158.301L158.732 43.5732C161.144 41.4195 162.822 40.9026 165.057 40.9026C167.51 40.9026 170.267 41.5918 172.203 45.1194C173.581 42.4941 175.989 40.9026 179.907 40.9026C185.203 40.9026 188 43.7863 188 49.9845V62.4217H184.128H184.123Z" fill="#303030"/>
<path d="M0.852539 84.571V72.0295H8.88254V74.2513H3.1967V76.9219H7.60391V79.1436H3.1967V82.3493H9.05484V84.571H0.852539Z" fill="#808080"/>
<path d="M24.4304 84.571L18.6947 75.9697V84.571H16.4004V72.0295H18.6584L24.0178 80.1276V72.0295H26.3121V84.571H24.4304Z" fill="#808080"/>
<path d="M34.4414 84.571V72.0295H42.4714V74.2513H36.7901V76.9219H41.1973V79.1436H36.7901V82.3493H42.6482V84.571H34.4414Z" fill="#808080"/>
<path d="M57.2166 84.571L54.6185 79.9099H52.2879V84.571H49.9937V72.0295H54.5822C57.0035 72.0295 58.8987 72.9273 58.8987 75.6478C58.8987 77.5839 57.9511 78.5678 56.7677 79.3023L59.597 84.571H57.212H57.2166ZM52.2879 73.943V77.7607H53.9701C56.0468 77.7607 56.4956 76.9355 56.4956 75.8065C56.4956 74.6775 56.0286 73.943 54.0563 73.943H52.2834H52.2879Z" fill="#808080"/>
<path d="M65.8315 78.2778C65.8315 74.3557 68.4115 71.7712 72.0842 71.7712C73.3038 71.7712 74.9316 72.0569 75.8475 72.5058L75.5981 74.6912C74.6323 74.2968 73.2494 73.9748 72.1386 73.9748C69.5224 73.9748 68.3389 75.8021 68.3389 78.2415C68.3389 80.8033 69.6493 82.6124 72.2474 82.6124C72.7688 82.6124 73.3583 82.5399 73.9658 82.4175V80.1776H72.5874V78.2778H76.2601V83.8684C75.3442 84.3898 73.3945 84.816 71.9617 84.816C68.4478 84.816 65.8315 82.2361 65.8315 78.2732V78.2778Z" fill="#808080"/>
<path d="M88.9829 79.0167V84.571H86.6887V79.0167L82.354 72.0295H84.7934L87.8403 76.9763L90.8873 72.0295H93.3267L88.992 79.0167H88.9829Z" fill="#808080"/>
<path d="M156.81 35.557C155.708 36.5863 154.32 37.3072 153.087 38.1551C152.57 38.2775 152.035 38.35 151.473 38.3818C147.954 38.5677 144.427 38.5994 140.913 38.8443C139.512 38.9395 138.083 39.2977 136.755 39.7692C134.189 40.6851 132.438 42.4988 131.6 45.1558C131.89 39.9415 133.685 37.5974 138.591 36.0467C144.39 34.2149 150.208 32.4375 156.012 30.6193C156.982 30.3155 158.07 30.1251 158.333 28.8464C159.458 31.1498 158.981 33.5212 156.81 35.557Z" fill="url(#paint0_linear_10759_520)"/>
<path d="M175.25 19.7736C175.209 19.9232 175.168 20.0729 175.118 20.2179C171.895 29.8757 165.502 36.0558 155.227 37.7561C154.479 37.8785 153.735 38.0372 153.069 38.1642C153.073 38.1596 153.082 38.1551 153.087 38.1551C154.32 37.3072 155.708 36.5863 156.81 35.557C158.981 33.5212 159.457 31.1498 158.333 28.8465C158.038 28.2525 157.639 27.663 157.136 27.0827C155.817 25.5728 154.502 24.0584 153.092 22.4442C153.749 21.9999 154.352 21.5646 154.978 21.1701C158.841 18.7398 162.799 16.4455 166.553 13.8611C167.315 13.6298 168.081 13.3986 168.843 13.1673C172.838 11.9658 175.259 13.9563 175.245 18.1277C175.245 18.7579 175.196 19.3882 175.168 20.023C175.196 19.9414 175.223 19.8552 175.25 19.7736Z" fill="url(#paint1_linear_10759_520)"/>
<path d="M178.692 0C178.188 6.88739 177.34 13.4347 175.25 19.7735C175.223 19.8551 175.196 19.9412 175.168 20.0229C175.196 19.3881 175.246 18.7578 175.246 18.1276C175.259 13.9562 172.838 11.9657 168.843 13.1672C168.082 13.3985 167.315 13.6297 166.554 13.8609C159.013 16.1507 151.509 18.5538 144.014 20.9841C143.983 20.9932 143.946 21.0068 143.915 21.0204C143.262 20.1226 142.677 19.1568 142.232 18.1503C141.076 15.525 141.289 13.6116 143.565 11.544C143.71 11.476 143.856 11.417 144.01 11.3581C147.451 10.0568 151.051 9.09553 154.656 8.34286C159.907 7.24106 165.261 6.61081 170.507 5.47727C174.565 4.60218 175.98 3.42783 178.692 0Z" fill="url(#paint2_linear_10759_520)"/>
<path d="M149.323 27.35C145.41 29.7531 141.615 32.0792 137.598 34.5458C136.465 29.3496 135.721 24.4255 137.208 19.4515C138.283 15.8605 140.355 12.9359 143.52 11.5621C143.529 11.5575 143.538 11.553 143.547 11.5485C143.551 11.5485 143.561 11.5439 143.565 11.5439C141.289 13.6115 141.076 15.5249 142.232 18.1502C142.676 19.1568 143.261 20.1226 143.914 21.0203C144.068 21.2335 144.227 21.4466 144.39 21.6506C145.628 23.2239 147.029 24.6613 148.353 26.1621C148.661 26.5112 148.943 26.883 149.323 27.35Z" fill="url(#paint3_linear_10759_520)"/>
<path d="M143.574 11.5349C143.574 11.5349 143.574 11.5394 143.565 11.5438C143.551 11.5483 143.533 11.5528 143.52 11.5617C143.538 11.5483 143.556 11.5438 143.574 11.5349Z" fill="url(#paint4_linear_10759_520)"/>
<defs>
<linearGradient id="paint0_linear_10759_520" x1="136.982" y1="48.9691" x2="153.618" y2="25.5048" gradientUnits="userSpaceOnUse">
<stop stop-color="#00C200"/>
<stop offset="1" stop-color="#008F00"/>
</linearGradient>
<linearGradient id="paint1_linear_10759_520" x1="153.042" y1="38.1415" x2="171.464" y2="12.1517" gradientUnits="userSpaceOnUse">
<stop stop-color="#00C200"/>
<stop offset="1" stop-color="#008F00"/>
</linearGradient>
<linearGradient id="paint2_linear_10759_520" x1="175.463" y1="10.0568" x2="140.342" y2="22.5121" gradientUnits="userSpaceOnUse">
<stop stop-color="#00C200"/>
<stop offset="1" stop-color="#008F00"/>
</linearGradient>
<linearGradient id="paint3_linear_10759_520" x1="135.771" y1="33.249" x2="148.621" y2="15.1259" gradientUnits="userSpaceOnUse">
<stop stop-color="#008F00"/>
<stop offset="1" stop-color="#00C200"/>
</linearGradient>
<linearGradient id="paint4_linear_10759_520" x1="143.533" y1="11.5706" x2="143.565" y2="11.526" gradientUnits="userSpaceOnUse">
<stop stop-color="#008F00"/>
<stop offset="1" stop-color="#00C200"/>
</linearGradient>
</defs>
</svg>
