<svg width="34" height="33" viewBox="0 0 34 33" fill="none" xmlns="http://www.w3.org/2000/svg">
<path d="M22.3389 21.657C21.9052 21.7572 21.5083 21.977 21.1931 22.2913C20.878 22.6056 20.6571 23.0019 20.5557 23.4353C20.4557 23.002 20.2359 22.6056 19.9215 22.2912C19.6071 21.9767 19.2106 21.757 18.7773 21.657C19.2106 21.557 19.6071 21.3372 19.9215 21.0228C20.2359 20.7084 20.4557 20.3119 20.5557 19.8787C20.6571 20.3121 20.878 20.7084 21.1931 21.0227C21.5083 21.337 21.9052 21.5567 22.3389 21.657Z" fill="#53C22B"/>
<path d="M27.6586 23.2341C26.1849 23.7745 25.7329 24.2166 25.2024 25.6903C24.6571 24.2166 24.2198 23.7646 22.7461 23.2341C24.2198 22.6888 24.6718 22.2516 25.2024 20.7778C25.7329 22.2467 26.175 22.6888 27.6586 23.2341Z" fill="#53C22B"/>
<path d="M20.217 16.327L3.95658 32.5875C3.93047 32.6145 3.89918 32.636 3.86457 32.6507C3.82997 32.6654 3.79276 32.6729 3.75517 32.6729C3.71758 32.6729 3.68037 32.6654 3.64577 32.6507C3.61116 32.636 3.57987 32.6145 3.55376 32.5875L2.88566 31.9341C2.83374 31.8809 2.80469 31.8095 2.80469 31.7351C2.80469 31.6608 2.83374 31.5894 2.88566 31.5362L19.1608 15.2561L20.217 16.327Z" fill="white"/>
<path d="M23.1786 13.3648L20.2311 16.3123L19.1602 15.2561L22.1077 12.3086L22.7758 12.5198C22.82 12.5328 22.8603 12.5567 22.893 12.5893C22.9256 12.6219 22.9495 12.6622 22.9624 12.7065L23.1786 13.3648Z" fill="white"/>
<path d="M22.9672 12.6917C22.9542 12.6474 22.9303 12.6071 22.8977 12.5745C22.8651 12.5419 22.8248 12.518 22.7805 12.505L22.1075 12.2839L21.125 13.2664L21.9405 13.517L22.1959 14.3325L23.1784 13.35L22.9672 12.6917Z" fill="white"/>
<path d="M22.9678 12.6915C22.9553 12.6478 22.9321 12.6079 22.9004 12.5753C22.8687 12.5427 22.8294 12.5185 22.786 12.5049L22.1081 12.2838L19.5732 11.4978C19.5244 11.4817 19.481 11.4525 19.4477 11.4134C19.4144 11.3743 19.3925 11.3268 19.3844 11.2761C19.3763 11.2254 19.3823 11.1734 19.4017 11.1259C19.4211 11.0783 19.4533 11.037 19.4946 11.0066L22.2358 9.06611C22.2723 9.03969 22.302 9.00499 22.3225 8.96485C22.343 8.92471 22.3537 8.88029 22.3537 8.83522L22.3095 5.47506C22.3106 5.42246 22.3259 5.37115 22.354 5.32663C22.382 5.28211 22.4216 5.24605 22.4685 5.22232C22.5155 5.19859 22.568 5.18809 22.6205 5.19194C22.6729 5.19579 22.7234 5.21384 22.7664 5.24417L25.4535 7.25339C25.4903 7.28085 25.5331 7.29919 25.5784 7.30687C25.6236 7.31456 25.6701 7.31138 25.7139 7.2976L28.8923 6.21685C28.9423 6.19873 28.9965 6.19525 29.0484 6.20681C29.1004 6.21838 29.1479 6.2445 29.1856 6.28214C29.2232 6.31977 29.2493 6.36735 29.2609 6.4193C29.2725 6.47125 29.269 6.52542 29.2509 6.57546L28.175 9.75386C28.1606 9.79728 28.1566 9.84351 28.1634 9.88876C28.1702 9.93402 28.1877 9.97701 28.2143 10.0142L30.2235 12.7063C30.2563 12.7483 30.2764 12.7988 30.2814 12.8519C30.2865 12.9049 30.2763 12.9583 30.252 13.0058C30.2278 13.0532 30.1905 13.0928 30.1446 13.1198C30.0986 13.1468 30.0459 13.1601 29.9927 13.1582L26.6374 13.114C26.5911 13.1138 26.5454 13.1248 26.5043 13.1462C26.4632 13.1676 26.428 13.1987 26.4016 13.2368L24.4366 15.978C24.4048 16.0177 24.363 16.0482 24.3155 16.0663C24.268 16.0844 24.2165 16.0894 24.1664 16.0809C24.1163 16.0724 24.0693 16.0506 24.0305 16.0178C23.9916 15.985 23.9622 15.9425 23.9454 15.8945L23.1594 13.3646L22.9678 12.6915Z" fill="#53C22B"/>
<path d="M26.9372 10.9772C26.7534 10.7315 26.6322 10.4447 26.5843 10.1417C26.5364 9.83867 26.5631 9.52851 26.6621 9.23813L26.8782 8.59459L26.2347 8.81565C26.0396 8.87977 25.8358 8.91292 25.6305 8.9139C25.2236 8.91356 24.8275 8.7827 24.5006 8.54055L23.9553 8.13281V8.81074C23.992 9.24069 23.8579 9.66781 23.5819 9.99957C23.4677 10.1437 23.3337 10.271 23.184 10.3778L22.6289 10.7708L23.2774 10.9722C23.5695 11.0637 23.8351 11.2245 24.0515 11.441C24.2679 11.6574 24.4287 11.923 24.5202 12.2151L24.7216 12.8636L25.1146 12.3085C25.2898 12.0626 25.5212 11.8621 25.7895 11.7237C26.0578 11.5853 26.3553 11.5129 26.6572 11.5126H27.3646L26.9372 10.9772Z" fill="#53C22B"/>
<path d="M20.5557 23.7645C20.4882 23.7646 20.4222 23.7439 20.3669 23.7052C20.3115 23.6666 20.2694 23.6118 20.2462 23.5484C20.1612 23.162 19.9677 22.8078 19.6883 22.5276C19.409 22.2474 19.0554 22.0527 18.6693 21.9666C18.6058 21.9434 18.5511 21.9012 18.5124 21.8459C18.4738 21.7905 18.4531 21.7246 18.4531 21.6571C18.4537 21.5897 18.4747 21.5241 18.5133 21.4689C18.5519 21.4136 18.6062 21.3714 18.6693 21.3476C19.0563 21.2622 19.4109 21.068 19.6912 20.7877C19.9715 20.5074 20.1658 20.1528 20.2511 19.7658C20.2743 19.7023 20.3164 19.6476 20.3718 19.6089C20.4271 19.5702 20.4931 19.5495 20.5606 19.5496C20.629 19.5485 20.696 19.5687 20.7523 19.6075C20.8087 19.6462 20.8515 19.7015 20.875 19.7658C20.9592 20.1533 21.1531 20.5085 21.4336 20.789C21.714 21.0695 22.0692 21.2634 22.4568 21.3476C22.5199 21.3714 22.5742 21.4136 22.6128 21.4689C22.6514 21.5241 22.6724 21.5897 22.673 21.6571C22.673 21.7246 22.6523 21.7905 22.6137 21.8459C22.575 21.9012 22.5203 21.9434 22.4568 21.9666C22.0692 22.0508 21.714 22.2447 21.4336 22.5251C21.1531 22.8056 20.9592 23.1608 20.875 23.5484C20.8513 23.6134 20.8076 23.6693 20.7503 23.7081C20.693 23.7469 20.6249 23.7667 20.5557 23.7645ZM19.6027 21.6571C20.0115 21.8636 20.3449 22.1936 20.5557 22.6003C20.7648 22.19 21.0984 21.8563 21.5087 21.6472C21.0984 21.4381 20.7648 21.1045 20.5557 20.6942C20.3483 21.1082 20.0145 21.4454 19.6027 21.6571Z" fill="#1E1E1E"/>
<path d="M25.1931 26.039C25.1252 26.0405 25.0586 26.0204 25.003 25.9815C24.9473 25.9427 24.9055 25.8871 24.8836 25.8228C24.3923 24.4228 24.0091 24.0641 22.6091 23.5532C22.546 23.5291 22.4917 23.4863 22.4533 23.4306C22.415 23.3749 22.3945 23.3089 22.3945 23.2413C22.3945 23.1737 22.415 23.1077 22.4533 23.052C22.4917 22.9963 22.546 22.9535 22.6091 22.9294C24.0091 22.4381 24.3678 22.0598 24.8836 20.6598C24.9061 20.5959 24.9481 20.5408 25.0036 20.502C25.0591 20.4633 25.1254 20.4428 25.1931 20.4436C25.2604 20.4442 25.326 20.4652 25.3813 20.5038C25.4365 20.5424 25.4788 20.5967 25.5026 20.6598C25.9938 22.0598 26.3721 22.4185 27.7721 22.9294C27.8353 22.9535 27.8896 22.9963 27.9279 23.052C27.9662 23.1077 27.9867 23.1737 27.9867 23.2413C27.9867 23.3089 27.9662 23.3749 27.9279 23.4306C27.8896 23.4863 27.8353 23.5291 27.7721 23.5532C26.3721 24.0445 26.0135 24.4228 25.5026 25.8228C25.4794 25.8863 25.4372 25.941 25.3819 25.9797C25.3265 26.0184 25.2606 26.0391 25.1931 26.039ZM23.5818 23.2339C24.3003 23.5456 24.8742 24.1178 25.1882 24.8354C25.4988 24.1173 26.0715 23.5446 26.7896 23.2339C26.0721 22.9167 25.5015 22.3391 25.1931 21.6177C24.879 22.3404 24.3034 22.9177 23.5818 23.2339Z" fill="#1E1E1E"/>
<path d="M3.75542 33.0001C3.59225 33.0001 3.43548 32.9367 3.3182 32.8233L2.65501 32.1552C2.59783 32.0981 2.55246 32.0304 2.5215 31.9557C2.49054 31.8811 2.47461 31.8012 2.47461 31.7204C2.47461 31.6396 2.49054 31.5597 2.5215 31.485C2.55246 31.4104 2.59783 31.3427 2.65501 31.2856L18.9154 15.0252L20.8804 13.0602C20.9121 13.0269 20.9502 13.0004 20.9924 12.9823C21.0347 12.9642 21.0801 12.9548 21.1261 12.9548C21.172 12.9548 21.2175 12.9642 21.2597 12.9823C21.3019 13.0004 21.34 13.0269 21.3717 13.0602C21.4326 13.1226 21.4667 13.2064 21.4667 13.2936C21.4667 13.3808 21.4326 13.4645 21.3717 13.5269L19.4067 15.4919L3.19539 31.7032L3.79963 32.3025L20.0109 16.0912L22.9584 13.1437C23.0208 13.0828 23.1046 13.0487 23.1918 13.0487C23.279 13.0487 23.3627 13.0828 23.4251 13.1437C23.4584 13.1754 23.4849 13.2135 23.5031 13.2557C23.5212 13.2979 23.5305 13.3434 23.5305 13.3893C23.5305 13.4353 23.5212 13.4808 23.5031 13.523C23.4849 13.5652 23.4584 13.6033 23.4251 13.635L20.4776 16.5825L4.18772 32.8233C4.13084 32.8797 4.06337 32.9244 3.98919 32.9548C3.91501 32.9851 3.83557 33.0005 3.75542 33.0001Z" fill="#1E1E1E"/>
<path d="M19.3795 15.0235L18.9141 15.489L19.9805 16.5554L20.446 16.09L19.3795 15.0235Z" fill="#1E1E1E"/>
<path d="M24.2389 16.4252C24.1071 16.4266 23.9784 16.3852 23.8721 16.3073C23.7658 16.2293 23.6877 16.119 23.6494 15.9929L22.6669 12.8145L19.4836 11.832C19.3735 11.7992 19.2752 11.7354 19.2003 11.6484C19.1254 11.5613 19.0771 11.4545 19.0611 11.3407C19.0421 11.2274 19.0555 11.1109 19.0999 11.0049C19.1442 10.8988 19.2176 10.8075 19.3117 10.7414L22.0332 8.81568L21.989 5.48499C21.9877 5.40394 22.0025 5.32344 22.0324 5.24812C22.0624 5.1728 22.107 5.10416 22.1636 5.04616C22.2203 4.98816 22.2878 4.94195 22.3624 4.91019C22.437 4.87842 22.5171 4.86174 22.5982 4.8611C22.7304 4.86003 22.8595 4.90135 22.9666 4.979L25.6341 6.97349L28.7928 5.89765C28.9174 5.85722 29.0515 5.85732 29.1759 5.89792C29.3004 5.93853 29.4088 6.01754 29.4855 6.12362C29.5433 6.20249 29.5811 6.2942 29.5956 6.39089C29.6102 6.48758 29.6011 6.58635 29.569 6.67874L28.4932 9.82766L30.4877 12.5001C30.5581 12.5908 30.6014 12.6996 30.6126 12.8138C30.6239 12.9281 30.6026 13.0432 30.5512 13.1459C30.4999 13.2486 30.4206 13.3347 30.3224 13.3943C30.2242 13.4538 30.1112 13.4845 29.9964 13.4826L26.6559 13.4433L24.7302 16.1648C24.6754 16.2447 24.6021 16.3101 24.5166 16.3554C24.431 16.4007 24.3358 16.4247 24.2389 16.4252ZM19.7686 11.2228L22.8782 12.2053C22.9736 12.2346 23.0605 12.2866 23.1315 12.3567C23.2025 12.4268 23.2555 12.5131 23.2859 12.6081L24.2684 15.7227L26.1499 13.0601C26.2058 12.9814 26.2794 12.9169 26.3647 12.8717C26.45 12.8264 26.5446 12.8018 26.6412 12.7997L29.9129 12.8439L27.9479 10.2305C27.8895 10.15 27.8511 10.0568 27.8357 9.95865C27.8204 9.86045 27.8285 9.76 27.8595 9.66554L28.9107 6.57557L25.8208 7.62194C25.7264 7.6533 25.6258 7.66164 25.5276 7.64626C25.4293 7.63088 25.3361 7.59222 25.2558 7.53351L22.6424 5.56851L22.6866 8.84515C22.6862 8.94147 22.6629 9.03631 22.6184 9.12176C22.574 9.20722 22.5098 9.28081 22.4311 9.33641L19.7686 11.2228Z" fill="#1E1E1E"/>
<path d="M24.7012 13.1978H24.652C24.5907 13.1878 24.5334 13.1609 24.4866 13.1201C24.4397 13.0793 24.4051 13.0263 24.3868 12.9669L24.1853 12.3185C24.1091 12.0786 23.9759 11.8608 23.7971 11.6837C23.6183 11.5066 23.3992 11.3755 23.1586 11.3016L22.5102 11.1002C22.4518 11.0824 22.3997 11.0486 22.3597 11.0025C22.3197 10.9565 22.2936 10.9001 22.2842 10.8398C22.2735 10.7788 22.2803 10.716 22.3038 10.6586C22.3273 10.6012 22.3664 10.5517 22.4168 10.5156L22.972 10.1226C23.0965 10.0364 23.2074 9.93211 23.3011 9.81311C23.3279 9.77892 23.3611 9.75033 23.3989 9.72899C23.4367 9.70765 23.4784 9.69396 23.5215 9.68871C23.5646 9.68347 23.6083 9.68677 23.6502 9.69842C23.692 9.71007 23.7311 9.72984 23.7653 9.75661C23.7995 9.78339 23.8281 9.81663 23.8494 9.85445C23.8708 9.89227 23.8845 9.93392 23.8897 9.97703C23.895 10.0201 23.8917 10.0639 23.88 10.1057C23.8684 10.1475 23.8486 10.1867 23.8218 10.2208C23.6797 10.3906 23.5143 10.5395 23.3306 10.663C23.6785 10.7685 23.995 10.9582 24.252 11.2153C24.5091 11.4723 24.6988 11.7888 24.8043 12.1367C25.0097 11.8471 25.2814 11.6107 25.5968 11.4475C25.9121 11.2843 26.2619 11.1989 26.617 11.1984H26.6563C26.4405 10.9106 26.2981 10.5745 26.2416 10.2193C26.1851 9.86399 26.2162 9.50029 26.3321 9.15974C26.1027 9.23781 25.8621 9.27764 25.6198 9.27764C25.1424 9.27663 24.6778 9.12348 24.2934 8.84043C24.2934 8.92818 24.2589 9.01241 24.1973 9.07492C24.1357 9.13743 24.052 9.17319 23.9643 9.17448C23.8769 9.17325 23.7934 9.13833 23.7312 9.077C23.6689 9.01568 23.6328 8.93268 23.6302 8.84534V8.13794C23.6288 8.0768 23.6445 8.01648 23.6755 7.96375C23.7064 7.91102 23.7515 7.86795 23.8055 7.83939C23.8596 7.81082 23.9206 7.79788 23.9816 7.80203C24.0426 7.80617 24.1012 7.82723 24.151 7.86284L24.6962 8.27058C24.8994 8.41927 25.135 8.51734 25.3837 8.55665C25.6323 8.59595 25.8867 8.57535 26.1258 8.49655L26.7742 8.2804C26.8324 8.25994 26.8951 8.25646 26.9552 8.27038C27.0152 8.2843 27.07 8.31504 27.1132 8.359C27.1562 8.40283 27.1863 8.45765 27.2001 8.51744C27.214 8.57724 27.2111 8.6397 27.1918 8.69797L26.9707 9.33659C26.8901 9.5757 26.8691 9.83084 26.9093 10.0799C26.9495 10.329 27.0499 10.5646 27.2016 10.7661L27.6045 11.3016C27.6421 11.3503 27.6654 11.4085 27.6716 11.4698C27.6778 11.531 27.6667 11.5928 27.6396 11.648C27.6125 11.7033 27.5704 11.7498 27.5182 11.7824C27.466 11.8149 27.4056 11.8322 27.3441 11.8322H26.6367C26.3883 11.8332 26.1438 11.8935 25.9233 12.008C25.7029 12.1225 25.513 12.2878 25.3693 12.4904L24.9763 13.0455C24.9471 13.0922 24.9065 13.1306 24.8584 13.1573C24.8103 13.1839 24.7562 13.1979 24.7012 13.1978Z" fill="#1E1E1E"/>
<path d="M30.7289 5.07716C30.6639 5.07608 30.6007 5.05608 30.5469 5.01961C30.4932 4.98314 30.4512 4.93178 30.4262 4.87183C30.4011 4.81187 30.3941 4.74592 30.406 4.68205C30.4179 4.61818 30.4482 4.55916 30.4931 4.51222L30.8615 4.14378C30.8928 4.10984 30.9308 4.08275 30.973 4.06423C31.0153 4.0457 31.061 4.03613 31.1071 4.03613C31.1533 4.03613 31.199 4.0457 31.2412 4.06423C31.2835 4.08275 31.3215 4.10984 31.3528 4.14378C31.3881 4.17422 31.4164 4.21192 31.4359 4.25431C31.4553 4.2967 31.4654 4.34278 31.4654 4.38941C31.4654 4.43604 31.4553 4.48212 31.4359 4.52451C31.4164 4.5669 31.3881 4.6046 31.3528 4.63503L30.9843 5.00347C30.9492 5.03284 30.9084 5.05457 30.8644 5.06726C30.8204 5.07994 30.7742 5.08332 30.7289 5.07716Z" fill="#1E1E1E"/>
<path d="M29.1036 3.83455C29.0467 3.83289 28.9913 3.81675 28.9424 3.78764C28.8935 3.75854 28.8529 3.71744 28.8244 3.66824C28.7958 3.61905 28.7803 3.56338 28.7793 3.50651C28.7783 3.44965 28.7919 3.39347 28.8187 3.3433L29.0839 2.89135C29.105 2.8528 29.1335 2.81884 29.1678 2.79147C29.2022 2.7641 29.2416 2.74389 29.2839 2.732C29.3262 2.72012 29.3704 2.71682 29.4139 2.72229C29.4575 2.72776 29.4995 2.74189 29.5376 2.76385C29.5756 2.78581 29.6088 2.81516 29.6353 2.85016C29.6618 2.88517 29.6811 2.92512 29.6919 2.96768C29.7027 3.01023 29.705 3.05452 29.6984 3.09793C29.6919 3.14135 29.6767 3.18302 29.6538 3.22049L29.3934 3.67244C29.3627 3.72174 29.3201 3.76246 29.2694 3.7908C29.2187 3.81915 29.1617 3.8342 29.1036 3.83455Z" fill="#1E1E1E"/>
<path d="M27.2159 3.04851C27.1883 3.05328 27.16 3.05328 27.1324 3.04851C27.0483 3.02544 26.9765 2.97039 26.9325 2.89512C26.8884 2.81985 26.8755 2.73033 26.8966 2.64569L27.0342 2.15444C27.045 2.11254 27.064 2.07322 27.0903 2.03881C27.1165 2.00439 27.1494 1.97558 27.1869 1.95406C27.2244 1.93255 27.2659 1.91876 27.3089 1.91352C27.3518 1.90828 27.3954 1.91169 27.437 1.92355C27.479 1.93441 27.5184 1.95346 27.553 1.97961C27.5876 2.00576 27.6167 2.0385 27.6386 2.07593C27.6606 2.11337 27.6749 2.15477 27.6807 2.19775C27.6866 2.24072 27.6839 2.28444 27.6728 2.32637L27.5352 2.81763C27.514 2.88541 27.4715 2.94452 27.4139 2.98613C27.3564 3.02775 27.2869 3.04963 27.2159 3.04851Z" fill="#1E1E1E"/>
<path d="M25.192 2.78319C25.1488 2.78384 25.1058 2.77597 25.0656 2.76003C25.0255 2.74408 24.9888 2.72038 24.9578 2.69027C24.9268 2.66016 24.902 2.62424 24.8849 2.58455C24.8677 2.54486 24.8586 2.50219 24.8579 2.45896V1.93332C24.8522 1.88639 24.8565 1.83878 24.8706 1.79363C24.8846 1.74848 24.9081 1.70683 24.9394 1.67144C24.9708 1.63604 25.0093 1.6077 25.0524 1.58829C25.0955 1.56887 25.1422 1.55884 25.1895 1.55884C25.2368 1.55884 25.2835 1.56887 25.3267 1.58829C25.3698 1.6077 25.4083 1.63604 25.4396 1.67144C25.471 1.70683 25.4944 1.74848 25.5085 1.79363C25.5225 1.83878 25.5268 1.88639 25.5211 1.93332V2.45896C25.5198 2.5454 25.4846 2.62786 25.423 2.68853C25.3614 2.7492 25.2784 2.7832 25.192 2.78319Z" fill="#1E1E1E"/>
<path d="M23.1637 3.0485C23.0908 3.04871 23.0199 3.0247 22.9621 2.98024C22.9043 2.93579 22.8629 2.8734 22.8444 2.80287L22.7117 2.31162C22.6969 2.26896 22.6909 2.22369 22.6943 2.17863C22.6976 2.13357 22.7103 2.08968 22.7313 2.04971C22.7524 2.00973 22.7815 1.97452 22.8167 1.94627C22.852 1.91802 22.8927 1.89734 22.9363 1.88551C22.9799 1.87368 23.0255 1.87095 23.0702 1.8775C23.1149 1.88405 23.1578 1.89974 23.1962 1.92358C23.2346 1.94743 23.2676 1.97892 23.2933 2.0161C23.319 2.05328 23.3367 2.09534 23.3455 2.13968L23.483 2.63093C23.5041 2.71557 23.4912 2.80509 23.4471 2.88036C23.4031 2.95564 23.3313 3.01069 23.2472 3.03376C23.2205 3.04379 23.1922 3.04878 23.1637 3.0485Z" fill="#1E1E1E"/>
<path d="M21.2727 3.83444C21.2147 3.83417 21.1578 3.81858 21.1077 3.78925C21.0577 3.75992 21.0163 3.71789 20.9877 3.66741L20.7274 3.21546C20.7058 3.17772 20.6918 3.1361 20.6863 3.09296C20.6808 3.04982 20.6838 3.00602 20.6952 2.96405C20.7066 2.92208 20.7261 2.88277 20.7527 2.84836C20.7793 2.81396 20.8125 2.78512 20.8502 2.76351C20.8879 2.7419 20.9296 2.72793 20.9727 2.72241C21.0158 2.71688 21.0596 2.71991 21.1016 2.73132C21.1436 2.74272 21.1829 2.76228 21.2173 2.78887C21.2517 2.81547 21.2805 2.84858 21.3021 2.88632L21.5625 3.33828C21.6054 3.41467 21.6165 3.50484 21.5936 3.58938C21.5706 3.67391 21.5153 3.74604 21.4397 3.79023C21.3889 3.81958 21.3313 3.83484 21.2727 3.83444Z" fill="#1E1E1E"/>
<path d="M19.652 5.07723C19.5651 5.07625 19.4821 5.04094 19.4212 4.97898L19.0527 4.61054C19.0205 4.5799 18.9946 4.5432 18.9765 4.50255C18.9584 4.46189 18.9485 4.41808 18.9474 4.3736C18.9462 4.32913 18.9539 4.28486 18.9698 4.24333C18.9858 4.2018 19.0098 4.16383 19.0404 4.13157C19.1023 4.06643 19.1876 4.02854 19.2774 4.02623C19.3219 4.02509 19.3661 4.03272 19.4076 4.04869C19.4492 4.06466 19.4871 4.08865 19.5194 4.11929L19.8878 4.48773C19.9218 4.51901 19.9489 4.55699 19.9674 4.59927C19.9859 4.64154 19.9955 4.6872 19.9955 4.73336C19.9955 4.77951 19.9859 4.82517 19.9674 4.86745C19.9489 4.90972 19.9218 4.9477 19.8878 4.97898C19.8251 5.04123 19.7404 5.07649 19.652 5.07723Z" fill="#1E1E1E"/>
<path d="M18.4072 6.69837C18.3488 6.69767 18.2914 6.68247 18.2402 6.65416L17.7882 6.38888C17.7508 6.36695 17.7181 6.33786 17.6919 6.30327C17.6657 6.26869 17.6466 6.22929 17.6357 6.18732C17.6247 6.14536 17.6222 6.10164 17.6281 6.05868C17.6341 6.01572 17.6484 5.97435 17.6703 5.93693C17.7146 5.86136 17.7871 5.80649 17.8719 5.78438C17.9139 5.77343 17.9576 5.77085 18.0005 5.7768C18.0435 5.78275 18.0849 5.79709 18.1223 5.81903L18.5743 6.07939C18.6371 6.11575 18.6862 6.17188 18.7139 6.23904C18.7415 6.30621 18.7462 6.38063 18.7271 6.45071C18.708 6.5208 18.6663 6.58261 18.6085 6.62651C18.5506 6.67042 18.4799 6.69396 18.4072 6.69346V6.69837Z" fill="#1E1E1E"/>
<path d="M17.6282 8.58991C17.5989 8.59459 17.5691 8.59459 17.5398 8.58991L17.0486 8.45727C16.9641 8.43313 16.8923 8.37711 16.8483 8.30105C16.8043 8.22498 16.7915 8.1348 16.8128 8.04953C16.8358 7.96562 16.891 7.89422 16.9665 7.85095C17.042 7.80769 17.1316 7.79607 17.2156 7.81864L17.7068 7.95128C17.7823 7.97424 17.8472 8.02318 17.8901 8.08943C17.933 8.15568 17.951 8.23496 17.941 8.31323C17.931 8.3915 17.8936 8.46369 17.8354 8.51703C17.7773 8.57037 17.7022 8.60141 17.6233 8.60465L17.6282 8.58991Z" fill="#1E1E1E"/>
<path d="M17.3577 10.6138H16.837C16.7497 10.6138 16.6659 10.5792 16.6042 10.5174C16.5425 10.4557 16.5078 10.372 16.5078 10.2847C16.5078 10.1974 16.5425 10.1137 16.6042 10.052C16.6659 9.99024 16.7497 9.95557 16.837 9.95557H17.3577C17.4009 9.95557 17.4437 9.96408 17.4836 9.98062C17.5236 9.99716 17.5599 10.0214 17.5904 10.052C17.621 10.0825 17.6452 10.1188 17.6618 10.1587C17.6783 10.1987 17.6868 10.2415 17.6868 10.2847C17.6868 10.3279 17.6783 10.3707 17.6618 10.4107C17.6452 10.4506 17.621 10.4869 17.5904 10.5174C17.5599 10.548 17.5236 10.5722 17.4836 10.5888C17.4437 10.6053 17.4009 10.6138 17.3577 10.6138Z" fill="#1E1E1E"/>
<path d="M17.122 12.7751C17.0413 12.776 16.9631 12.7473 16.9023 12.6943C16.8414 12.6414 16.8021 12.568 16.7918 12.488C16.7815 12.408 16.8009 12.327 16.8464 12.2604C16.8918 12.1937 16.9602 12.1461 17.0385 12.1266L17.5297 11.994C17.5724 11.9791 17.6177 11.9731 17.6627 11.9765C17.7078 11.9799 17.7517 11.9925 17.7916 12.0135C17.8316 12.0346 17.8668 12.0637 17.8951 12.099C17.9233 12.1342 17.944 12.1749 17.9558 12.2185C17.9677 12.2621 17.9704 12.3077 17.9638 12.3524C17.9573 12.3971 17.9416 12.44 17.9178 12.4784C17.8939 12.5168 17.8624 12.5499 17.8252 12.5755C17.7881 12.6012 17.746 12.619 17.7017 12.6277L17.1957 12.7751C17.1713 12.779 17.1464 12.779 17.122 12.7751Z" fill="#1E1E1E"/>
<path d="M17.9564 14.7894C17.8838 14.7899 17.813 14.7664 17.7552 14.7225C17.6973 14.6786 17.6556 14.6167 17.6365 14.5467C17.6175 14.4766 17.6221 14.4022 17.6498 14.335C17.6774 14.2678 17.7265 14.2117 17.7894 14.1753L18.2413 13.915C18.3169 13.8707 18.407 13.8582 18.4917 13.8803C18.5765 13.9024 18.649 13.9573 18.6933 14.0329C18.7376 14.1084 18.75 14.1985 18.7279 14.2833C18.7058 14.368 18.651 14.4405 18.5754 14.4848L18.1234 14.7452C18.0723 14.7735 18.0149 14.7887 17.9564 14.7894Z" fill="#1E1E1E"/>
<path d="M21.0132 17.8498C20.9562 17.8496 20.9003 17.8343 20.8511 17.8056C20.7755 17.7614 20.7202 17.6893 20.6972 17.6048C20.6743 17.5202 20.6854 17.43 20.7283 17.3537L20.9887 16.9017C21.0323 16.8255 21.1044 16.7697 21.1892 16.7467C21.274 16.7237 21.3644 16.7352 21.4406 16.7789C21.5168 16.8225 21.5726 16.8947 21.5956 16.9794C21.6187 17.0642 21.6071 17.1546 21.5634 17.2308L21.3031 17.6828C21.2733 17.7333 21.231 17.7753 21.1802 17.8046C21.1294 17.8338 21.0719 17.8494 21.0132 17.8498Z" fill="#1E1E1E"/>
<path d="M23.026 18.6703H22.9425C22.9006 18.6595 22.8613 18.6405 22.8269 18.6142C22.7925 18.588 22.7637 18.5551 22.7421 18.5176C22.7206 18.4801 22.7068 18.4386 22.7016 18.3956C22.6964 18.3527 22.6998 18.3091 22.7116 18.2675L22.8443 17.7763C22.8551 17.7344 22.8741 17.695 22.9004 17.6606C22.9266 17.6262 22.9595 17.5974 22.997 17.5759C23.0345 17.5544 23.076 17.5406 23.119 17.5353C23.1619 17.5301 23.2055 17.5335 23.2471 17.5454C23.2891 17.5562 23.3285 17.5753 23.3631 17.6014C23.3977 17.6276 23.4268 17.6603 23.4488 17.6978C23.4707 17.7352 23.485 17.7766 23.4908 17.8196C23.4967 17.8626 23.494 17.9063 23.4829 17.9482L23.3453 18.4395C23.3242 18.5072 23.2816 18.5663 23.2241 18.608C23.1665 18.6496 23.097 18.6715 23.026 18.6703Z" fill="#1E1E1E"/>
<path d="M25.1934 18.965C25.1498 18.9657 25.1065 18.9576 25.066 18.9414C25.0255 18.9251 24.9886 18.901 24.9575 18.8704C24.9264 18.8397 24.9017 18.8032 24.8849 18.763C24.868 18.7227 24.8594 18.6795 24.8594 18.6359V18.1151C24.8693 18.0342 24.9084 17.9596 24.9695 17.9055C25.0306 17.8514 25.1094 17.8215 25.191 17.8215C25.2726 17.8215 25.3513 17.8514 25.4124 17.9055C25.4735 17.9596 25.5127 18.0342 25.5226 18.1151V18.6359C25.5226 18.6791 25.5141 18.7219 25.4975 18.7618C25.481 18.8018 25.4567 18.838 25.4262 18.8686C25.3956 18.8992 25.3593 18.9234 25.3194 18.94C25.2794 18.9565 25.2366 18.965 25.1934 18.965Z" fill="#1E1E1E"/>
<path d="M27.3545 18.6702C27.2816 18.6704 27.2107 18.6464 27.1529 18.6019C27.0951 18.5575 27.0537 18.4951 27.0352 18.4246L26.8977 17.9333C26.8866 17.8914 26.8839 17.8477 26.8897 17.8047C26.8956 17.7617 26.9099 17.7203 26.9318 17.6829C26.9537 17.6454 26.9828 17.6127 27.0174 17.5865C27.052 17.5604 27.0915 17.5413 27.1335 17.5305C27.1751 17.5186 27.2186 17.5152 27.2616 17.5205C27.3045 17.5257 27.346 17.5395 27.3836 17.561C27.4211 17.5825 27.4539 17.6113 27.4802 17.6457C27.5064 17.6802 27.5255 17.7195 27.5363 17.7614L27.6738 18.2526C27.6849 18.2946 27.6876 18.3383 27.6818 18.3812C27.6759 18.4242 27.6616 18.4656 27.6397 18.5031C27.6178 18.5405 27.5887 18.5732 27.5541 18.5994C27.5195 18.6255 27.48 18.6446 27.438 18.6554L27.3545 18.6702Z" fill="#1E1E1E"/>
<path d="M29.3674 17.8498C29.3098 17.8505 29.253 17.8359 29.203 17.8074C29.1529 17.7789 29.1113 17.7376 29.0825 17.6877L28.8172 17.2357C28.7956 17.198 28.7816 17.1564 28.7761 17.1132C28.7706 17.0701 28.7736 17.0263 28.785 16.9843C28.7964 16.9423 28.816 16.903 28.8426 16.8686C28.8692 16.8342 28.9023 16.8054 28.94 16.7838C28.9778 16.7622 29.0194 16.7482 29.0625 16.7427C29.1057 16.7371 29.1495 16.7402 29.1914 16.7516C29.2334 16.763 29.2727 16.7825 29.3071 16.8091C29.3415 16.8357 29.3704 16.8688 29.392 16.9066L29.6523 17.3585C29.6742 17.3962 29.6884 17.4379 29.6941 17.481C29.6998 17.5242 29.6968 17.5681 29.6854 17.6102C29.6739 17.6522 29.6543 17.6916 29.6275 17.726C29.6008 17.7603 29.5675 17.7891 29.5295 17.8105C29.4799 17.8375 29.424 17.8511 29.3674 17.8498Z" fill="#1E1E1E"/>
<path d="M31.0977 16.5183C31.0099 16.5194 30.9252 16.4859 30.8619 16.425L30.4934 16.0566C30.4325 15.9942 30.3984 15.9104 30.3984 15.8232C30.3984 15.736 30.4325 15.6523 30.4934 15.5899C30.5239 15.5546 30.5616 15.5262 30.604 15.5068C30.6464 15.4874 30.6924 15.4773 30.7391 15.4773C30.7857 15.4773 30.8318 15.4874 30.8742 15.5068C30.9166 15.5262 30.9543 15.5546 30.9847 15.5899L31.3531 15.9583C31.3984 16.0043 31.4292 16.0627 31.4416 16.126C31.454 16.1894 31.4475 16.255 31.4229 16.3147C31.3983 16.3744 31.3566 16.4255 31.3032 16.4617C31.2497 16.4979 31.1868 16.5176 31.1222 16.5183H31.0977Z" fill="#1E1E1E"/>
<path d="M32.4248 14.7894C32.3663 14.7887 32.3089 14.7735 32.2578 14.7452L31.8058 14.4848C31.7303 14.4405 31.6754 14.368 31.6533 14.2833C31.6312 14.1985 31.6436 14.1084 31.6879 14.0329C31.7322 13.9573 31.8047 13.9024 31.8895 13.8803C31.9742 13.8582 32.0643 13.8707 32.1399 13.915L32.5918 14.1753C32.6547 14.2117 32.7038 14.2678 32.7314 14.335C32.7591 14.4022 32.7637 14.4766 32.7447 14.5467C32.7256 14.6167 32.6839 14.6786 32.626 14.7225C32.5682 14.7664 32.4974 14.7899 32.4248 14.7894Z" fill="#1E1E1E"/>
<path d="M33.2584 12.7752C33.2308 12.7803 33.2025 12.7803 33.1749 12.7752L32.6836 12.6377C32.6393 12.629 32.5972 12.6112 32.56 12.5855C32.5229 12.5599 32.4914 12.5268 32.4675 12.4884C32.4437 12.45 32.428 12.4072 32.4214 12.3624C32.4149 12.3177 32.4176 12.2722 32.4295 12.2285C32.4413 12.1849 32.462 12.1442 32.4902 12.109C32.5185 12.0737 32.5537 12.0446 32.5936 12.0236C32.6336 12.0025 32.6775 11.9899 32.7226 11.9865C32.7676 11.9831 32.8129 11.9891 32.8556 12.004L33.3468 12.1366C33.4182 12.1619 33.4787 12.2111 33.518 12.2759C33.5574 12.3406 33.5732 12.4169 33.5628 12.492C33.5524 12.567 33.5165 12.6362 33.461 12.6878C33.4055 12.7394 33.334 12.7703 33.2584 12.7752Z" fill="#1E1E1E"/>
<path d="M33.5432 10.6138H33.0225C32.9793 10.6138 32.9365 10.6053 32.8965 10.5888C32.8566 10.5722 32.8203 10.548 32.7898 10.5174C32.7592 10.4869 32.735 10.4506 32.7184 10.4107C32.7019 10.3707 32.6934 10.3279 32.6934 10.2847C32.6934 10.2415 32.7019 10.1987 32.7184 10.1587C32.735 10.1188 32.7592 10.0825 32.7898 10.052C32.8203 10.0214 32.8566 9.99716 32.8965 9.98062C32.9365 9.96408 32.9793 9.95557 33.0225 9.95557H33.5432C33.5864 9.95557 33.6292 9.96408 33.6692 9.98062C33.7091 9.99716 33.7454 10.0214 33.776 10.052C33.8065 10.0825 33.8308 10.1188 33.8473 10.1587C33.8638 10.1987 33.8724 10.2415 33.8724 10.2847C33.8724 10.3279 33.8638 10.3707 33.8473 10.4107C33.8308 10.4506 33.8065 10.4869 33.776 10.5174C33.7454 10.548 33.7091 10.5722 33.6692 10.5888C33.6292 10.6053 33.5864 10.6138 33.5432 10.6138Z" fill="#1E1E1E"/>
<path d="M32.752 8.58975C32.6732 8.58652 32.598 8.55548 32.5399 8.50214C32.4817 8.4488 32.4443 8.3766 32.4343 8.29834C32.4243 8.22007 32.4424 8.14079 32.4852 8.07454C32.5281 8.00829 32.593 7.95935 32.6685 7.93639L33.1597 7.80375C33.2438 7.78118 33.3333 7.7928 33.4088 7.83606C33.4843 7.87933 33.5396 7.95072 33.5626 8.03464C33.5838 8.11991 33.571 8.21009 33.527 8.28615C33.4831 8.36222 33.4112 8.41823 33.3268 8.44238L32.8355 8.57502C32.8086 8.58414 32.7804 8.58911 32.752 8.58975Z" fill="#1E1E1E"/>
<path d="M31.972 6.69843C31.8994 6.69893 31.8287 6.6754 31.7708 6.63149C31.7129 6.58758 31.6712 6.52577 31.6522 6.45569C31.6331 6.38561 31.6378 6.31118 31.6654 6.24402C31.693 6.17686 31.7421 6.12073 31.805 6.08437L32.257 5.82401C32.2941 5.79797 32.3362 5.7799 32.3807 5.77092C32.4252 5.76194 32.471 5.76225 32.5154 5.77183C32.5597 5.7814 32.6016 5.80005 32.6384 5.82658C32.6752 5.85311 32.7061 5.88697 32.7292 5.92602C32.7523 5.96507 32.767 6.00847 32.7725 6.05349C32.7781 6.09852 32.7742 6.1442 32.7612 6.18767C32.7483 6.23114 32.7265 6.27146 32.6972 6.3061C32.6679 6.34073 32.6317 6.36894 32.591 6.38894L32.1391 6.64931C32.0886 6.67995 32.031 6.69688 31.972 6.69843Z" fill="#1E1E1E"/>
<path d="M4.45332 3.09756C4.39639 3.1002 4.33974 3.088 4.28894 3.06216C4.23813 3.03633 4.1949 2.99774 4.16349 2.95019C4.13431 2.91087 4.11441 2.86546 4.10529 2.81735C4.09616 2.76925 4.09806 2.7197 4.11082 2.67243C4.12358 2.62516 4.14688 2.5814 4.17898 2.54442C4.21107 2.50745 4.25112 2.47822 4.29612 2.45893C7.49826 0.790203 11.0659 -0.0539989 14.6763 0.00267653C16.7014 -0.00290132 18.7189 0.25135 20.6794 0.759204C20.7639 0.783349 20.8357 0.83936 20.8797 0.915427C20.9236 0.991493 20.9364 1.08167 20.9152 1.16694C20.8922 1.25086 20.8369 1.32225 20.7614 1.36552C20.6859 1.40879 20.5964 1.4204 20.5123 1.39783C18.6064 0.904066 16.6451 0.656426 14.6763 0.660954C11.1755 0.624808 7.71922 1.44796 4.61053 3.05826C4.56187 3.08335 4.50806 3.0968 4.45332 3.09756Z" fill="#1E1E1E"/>
<path d="M1.16184 5.5144C1.07492 5.51342 0.991918 5.4781 0.930948 5.41615C0.870035 5.35375 0.835938 5.27 0.835938 5.1828C0.835938 5.0956 0.870035 5.01186 0.930948 4.94946C1.41581 4.46525 1.93816 4.02011 2.49313 3.61816C2.52775 3.58989 2.56777 3.56896 2.61074 3.55666C2.65371 3.54435 2.69874 3.54093 2.74308 3.5466C2.78742 3.55227 2.83014 3.56692 2.86864 3.58964C2.90713 3.61236 2.94059 3.64269 2.96698 3.67876C2.99337 3.71484 3.01214 3.75592 3.02213 3.79949C3.03213 3.84305 3.03315 3.8882 3.02512 3.93218C3.0171 3.97615 3.0002 4.01803 2.97546 4.05526C2.95072 4.09249 2.91865 4.12429 2.88122 4.14872C2.36011 4.53518 1.86757 4.95875 1.40746 5.41615C1.37554 5.44862 1.33723 5.47412 1.29495 5.49103C1.25268 5.50795 1.20735 5.5159 1.16184 5.5144Z" fill="#1E1E1E"/>
<path d="M10.3187 13.6937C10.2416 13.6938 10.1669 13.6668 10.1076 13.6174C10.0484 13.568 10.0083 13.4994 9.99451 13.4235C9.98603 13.3808 9.98621 13.3369 9.99504 13.2944C10.0039 13.2518 10.0212 13.2114 10.0459 13.1757C10.0707 13.1399 10.1024 13.1095 10.1391 13.0863C10.1758 13.063 10.2169 13.0474 10.2598 13.0403C11.7178 12.7679 13.1979 12.6314 14.6811 12.6326C14.7688 12.6326 14.853 12.6671 14.9155 12.7287C14.9781 12.7903 15.0138 12.874 15.0151 12.9617C15.0138 13.0499 14.9782 13.1341 14.9159 13.1965C14.8535 13.2589 14.7693 13.2945 14.6811 13.2958C13.2376 13.2945 11.7971 13.4261 10.3777 13.6888L10.3187 13.6937Z" fill="#1E1E1E"/>
<path d="M1.16184 18.1445C1.07492 18.1435 0.991918 18.1082 0.930948 18.0462C0.870035 17.9838 0.835938 17.9001 0.835938 17.8129C0.835938 17.7257 0.870035 17.6419 0.930948 17.5795C2.86385 15.7372 5.21314 14.3889 7.779 13.6495C7.86238 13.6235 7.9527 13.6316 8.03009 13.6721C8.10747 13.7127 8.16559 13.7823 8.19165 13.8657C8.2177 13.9491 8.20957 14.0394 8.16903 14.1168C8.1285 14.1941 8.05888 14.2523 7.9755 14.2783C5.51278 14.9894 3.25689 16.2816 1.39764 18.0462C1.36686 18.0775 1.33015 18.1023 1.28966 18.1192C1.24916 18.136 1.2057 18.1446 1.16184 18.1445Z" fill="#1E1E1E"/>
<path d="M5.93956 18.1789C5.86304 18.1796 5.78867 18.1536 5.72924 18.1054C5.66981 18.0572 5.62903 17.9898 5.61391 17.9148C5.59879 17.8398 5.61028 17.7619 5.6464 17.6944C5.68252 17.6269 5.74102 17.5742 5.81183 17.5452C8.61269 16.3777 11.62 15.7863 14.6544 15.8061C14.7417 15.8061 14.8254 15.8408 14.8871 15.9026C14.9488 15.9643 14.9835 16.048 14.9835 16.1353C14.9835 16.2226 14.9488 16.3063 14.8871 16.368C14.8254 16.4298 14.7417 16.4644 14.6544 16.4644C11.7031 16.4434 8.77775 17.0164 6.05255 18.1494C6.01698 18.166 5.97869 18.176 5.93956 18.1789Z" fill="#1E1E1E"/>
<path d="M14.8361 4.54666C14.7492 4.54568 14.6662 4.51036 14.6053 4.44841L13.667 3.51012C13.6051 3.44823 13.5703 3.3643 13.5703 3.27678C13.5703 3.18926 13.6051 3.10532 13.667 3.04343C13.7289 2.98155 13.8128 2.94678 13.9003 2.94678C13.9878 2.94678 14.0718 2.98155 14.1337 3.04343L15.0719 3.98172C15.1169 4.02866 15.1471 4.08768 15.159 4.15155C15.1709 4.21543 15.1639 4.28137 15.1389 4.34133C15.1138 4.40128 15.0719 4.45264 15.0181 4.48911C14.9643 4.52558 14.9011 4.54558 14.8361 4.54666Z" fill="#1E1E1E"/>
<path d="M13.8991 4.54681C13.8122 4.54583 13.7292 4.51051 13.6682 4.44856C13.6343 4.41728 13.6072 4.3793 13.5886 4.33702C13.5701 4.29475 13.5605 4.24909 13.5605 4.20293C13.5605 4.15678 13.5701 4.11112 13.5886 4.06884C13.6072 4.02657 13.6343 3.98859 13.6682 3.95731L14.6065 3.01902C14.6684 2.95713 14.7523 2.92236 14.8398 2.92236C14.9274 2.92236 15.0113 2.95713 15.0732 3.01902C15.1351 3.0809 15.1698 3.16484 15.1698 3.25236C15.1698 3.33988 15.1351 3.42382 15.0732 3.48571L14.1349 4.44856C14.0721 4.51081 13.9875 4.54606 13.8991 4.54681Z" fill="#1E1E1E"/>
<path d="M11.3971 10.6235C11.3533 10.6237 11.3098 10.6151 11.2693 10.5982C11.2288 10.5814 11.1921 10.5566 11.1613 10.5253L10.0757 9.43963C10.0443 9.40939 10.0194 9.37314 10.0024 9.33305C9.98534 9.29295 9.97656 9.24984 9.97656 9.20628C9.97656 9.16273 9.98534 9.11961 10.0024 9.07952C10.0194 9.03943 10.0443 9.00318 10.0757 8.97294C10.1381 8.91203 10.2218 8.87793 10.309 8.87793C10.3962 8.87793 10.48 8.91203 10.5424 8.97294L11.628 10.0586C11.662 10.0899 11.6891 10.1279 11.7076 10.1701C11.7261 10.2124 11.7357 10.2581 11.7357 10.3042C11.7357 10.3504 11.7261 10.396 11.7076 10.4383C11.6891 10.4806 11.662 10.5186 11.628 10.5499C11.5632 10.6029 11.4807 10.6292 11.3971 10.6235Z" fill="#1E1E1E"/>
<path d="M10.3181 10.6236C10.2312 10.6227 10.1482 10.5873 10.0872 10.5254C10.0519 10.4949 10.0235 10.4572 10.0041 10.4149C9.98467 10.3725 9.97461 10.3264 9.97461 10.2798C9.97461 10.2331 9.98467 10.187 10.0041 10.1447C10.0235 10.1023 10.0519 10.0646 10.0872 10.0341L11.1729 8.94847C11.2348 8.88332 11.32 8.84543 11.4098 8.84313C11.4996 8.84083 11.5867 8.8743 11.6518 8.93619C11.717 8.99807 11.7549 9.0833 11.7572 9.17313C11.7595 9.26295 11.726 9.35001 11.6641 9.41516L10.5784 10.5008C10.5467 10.5391 10.507 10.57 10.462 10.5912C10.417 10.6125 10.3678 10.6235 10.3181 10.6236Z" fill="#1E1E1E"/>
<path d="M6.58438 6.51166C6.54164 6.51209 6.49924 6.50406 6.45962 6.48804C6.41999 6.47203 6.38392 6.44833 6.35349 6.41832L5.0615 5.12633C4.99961 5.06444 4.96484 4.98051 4.96484 4.89299C4.96484 4.80547 4.99961 4.72153 5.0615 4.65964C5.12339 4.59776 5.20732 4.56299 5.29484 4.56299C5.38236 4.56299 5.4663 4.59776 5.52819 4.65964L6.82018 5.95163C6.85412 5.98292 6.88121 6.02089 6.89973 6.06317C6.91826 6.10545 6.92783 6.1511 6.92783 6.19726C6.92783 6.24342 6.91826 6.28907 6.89973 6.33135C6.88121 6.37363 6.85412 6.4116 6.82018 6.44289C6.75364 6.49585 6.66896 6.52055 6.58438 6.51166Z" fill="#1E1E1E"/>
<path d="M5.29717 6.51167C5.23219 6.51191 5.16859 6.49292 5.11439 6.45707C5.06019 6.42123 5.01781 6.37015 4.99259 6.31026C4.96737 6.25037 4.96045 6.18435 4.97269 6.12054C4.98493 6.05672 5.01578 5.99795 5.06137 5.95164L6.35336 4.65965C6.384 4.62739 6.4207 4.60149 6.46135 4.58341C6.50201 4.56534 6.54583 4.55545 6.5903 4.55431C6.63478 4.55317 6.67904 4.5608 6.72057 4.57677C6.7621 4.59274 6.80007 4.61672 6.83233 4.64737C6.86459 4.67801 6.89049 4.71471 6.90857 4.75536C6.92664 4.79602 6.93653 4.83983 6.93767 4.88431C6.93881 4.92879 6.93118 4.97305 6.91521 5.01458C6.89924 5.05611 6.87526 5.09408 6.84461 5.12634L5.55262 6.41833C5.51934 6.45146 5.47926 6.47696 5.43515 6.49308C5.39105 6.50919 5.34397 6.51554 5.29717 6.51167Z" fill="#1E1E1E"/>
<path d="M1.99535 13.9642C1.90695 13.9634 1.82233 13.9281 1.75955 13.8659L0.0991197 12.2006C0.0677707 12.1703 0.042837 12.1341 0.025807 12.094C0.008777 12.0539 0 12.0108 0 11.9672C0 11.9237 0.008777 11.8805 0.025807 11.8405C0.042837 11.8004 0.0677707 11.7641 0.0991197 11.7339C0.130403 11.6999 0.16838 11.6728 0.210656 11.6543C0.252931 11.6358 0.298588 11.6262 0.344746 11.6262C0.390903 11.6262 0.43656 11.6358 0.478835 11.6543C0.521111 11.6728 0.559088 11.6999 0.590371 11.7339L2.2508 13.3992C2.28215 13.4295 2.30708 13.4657 2.32411 13.5058C2.34114 13.5459 2.34992 13.589 2.34992 13.6326C2.34992 13.6761 2.34114 13.7192 2.32411 13.7593C2.30708 13.7994 2.28215 13.8357 2.2508 13.8659C2.21776 13.8996 2.17785 13.9259 2.13377 13.9428C2.0897 13.9598 2.04249 13.9671 1.99535 13.9642Z" fill="#1E1E1E"/>
<path d="M0.330008 13.9642C0.243091 13.9632 0.16009 13.9279 0.0991197 13.8659C0.0677707 13.8357 0.042837 13.7994 0.025807 13.7593C0.008777 13.7192 0 13.6761 0 13.6326C0 13.589 0.008777 13.5459 0.025807 13.5058C0.042837 13.4657 0.0677707 13.4295 0.0991197 13.3992L1.75955 11.7339C1.79083 11.6999 1.82881 11.6728 1.87109 11.6543C1.91336 11.6358 1.95902 11.6262 2.00518 11.6262C2.05133 11.6262 2.09699 11.6358 2.13927 11.6543C2.18154 11.6728 2.21952 11.6999 2.2508 11.7339C2.28215 11.7641 2.30708 11.8004 2.32411 11.8405C2.34114 11.8805 2.34992 11.9237 2.34992 11.9672C2.34992 12.0108 2.34114 12.0539 2.32411 12.094C2.30708 12.1341 2.28215 12.1703 2.2508 12.2006L0.565809 13.8659C0.503029 13.9281 0.418413 13.9634 0.330008 13.9642Z" fill="#1E1E1E"/>
<path d="M10.8526 4.70896C10.8087 4.70912 10.7652 4.70052 10.7248 4.68365C10.6843 4.66677 10.6475 4.64198 10.6168 4.61071C10.5571 4.54866 10.5236 4.46594 10.5234 4.37982C10.5239 4.29229 10.5572 4.20813 10.6168 4.14402C10.6803 4.08533 10.7636 4.05273 10.8501 4.05273C10.9366 4.05273 11.0199 4.08533 11.0835 4.14402C11.1147 4.1748 11.1395 4.21151 11.1564 4.252C11.1733 4.2925 11.1819 4.33595 11.1817 4.37982C11.1818 4.42295 11.1731 4.46564 11.1562 4.50532C11.1393 4.545 11.1146 4.58085 11.0835 4.61071C11.054 4.6423 11.0182 4.66736 10.9784 4.68428C10.9387 4.70121 10.8958 4.70961 10.8526 4.70896Z" fill="#1E1E1E"/>
<path d="M6.26569 11.3459C6.22182 11.3461 6.17837 11.3374 6.13787 11.3206C6.09738 11.3037 6.06066 11.2789 6.02989 11.2476C5.96881 11.1861 5.93365 11.1034 5.93164 11.0167C5.93387 10.9287 5.96891 10.8446 6.02989 10.7809C6.06191 10.7483 6.10013 10.7223 6.1423 10.7046C6.18448 10.6869 6.22977 10.6777 6.27552 10.6777C6.32127 10.6777 6.36656 10.6869 6.40873 10.7046C6.45091 10.7223 6.48913 10.7483 6.52114 10.7809C6.55241 10.8117 6.5772 10.8484 6.59408 10.8889C6.61095 10.9294 6.61956 10.9729 6.61939 11.0167C6.62004 11.06 6.61164 11.1028 6.59472 11.1426C6.5778 11.1824 6.55273 11.2181 6.52114 11.2476C6.4881 11.2814 6.44819 11.3076 6.40411 11.3246C6.36004 11.3415 6.31283 11.3488 6.26569 11.3459Z" fill="#1E1E1E"/>
<path d="M14.3702 8.89939C14.3263 8.89955 14.2828 8.89095 14.2423 8.87407C14.2018 8.8572 14.1651 8.8324 14.1344 8.80114C14.0742 8.73937 14.0407 8.65647 14.041 8.57025C14.0414 8.48273 14.0748 8.39856 14.1344 8.33445C14.1979 8.27576 14.2812 8.24316 14.3677 8.24316C14.4542 8.24316 14.5375 8.27576 14.601 8.33445C14.6323 8.36522 14.6571 8.40194 14.674 8.44243C14.6909 8.48293 14.6995 8.52638 14.6993 8.57025C14.698 8.65715 14.6629 8.74013 14.6015 8.80159C14.54 8.86304 14.4571 8.89812 14.3702 8.89939Z" fill="#1E1E1E"/>
<path d="M2.68266 7.79884C2.59596 7.79683 2.51333 7.76167 2.45177 7.70059C2.4205 7.66982 2.39571 7.63311 2.37883 7.59261C2.36196 7.55212 2.35335 7.50866 2.35352 7.46479C2.35345 7.42167 2.36213 7.37898 2.37901 7.33929C2.3959 7.29961 2.42065 7.26376 2.45177 7.2339C2.4984 7.18924 2.55698 7.15906 2.62042 7.14699C2.68385 7.13493 2.74942 7.14151 2.8092 7.16594C2.86897 7.19037 2.92038 7.2316 2.95721 7.28464C2.99404 7.33768 3.0147 7.40025 3.01671 7.46479C3.01448 7.55289 2.97944 7.63698 2.91846 7.70059C2.85539 7.76241 2.77096 7.79759 2.68266 7.79884Z" fill="#1E1E1E"/>
</svg>
