<svg width="55" height="59" viewBox="0 0 55 59" fill="none" xmlns="http://www.w3.org/2000/svg">
<path fill-rule="evenodd" clip-rule="evenodd" d="M49.9767 56.6467H53.7713C54.2934 56.6467 54.7174 57.0697 54.7174 57.5908C54.7174 58.1118 54.2934 58.5349 53.7713 58.5349H0.946066C0.423956 58.5349 0 58.1118 0 57.5908C0 57.0697 0.423956 56.6467 0.946066 56.6467H4.74074V35.4561H4.74393C4.7418 35.4179 4.74074 35.3795 4.74074 35.3412C4.74074 34.5507 5.18764 33.7752 6.06334 33.1827C7.04039 32.5216 8.61027 32.0647 10.3877 32.0647C12.1651 32.0647 13.735 32.5216 14.712 33.1827C15.5877 33.7752 16.0346 34.5507 16.0346 35.3412C16.0346 35.3795 16.0336 35.4179 16.0314 35.4561H16.0346V56.6467H21.7117V25.1639C21.7117 24.3735 22.1586 23.598 23.0343 23.0054C24.0114 22.3443 25.5813 21.8876 27.3587 21.8876C29.1361 21.8876 30.706 22.3443 31.683 23.0054C32.5587 23.598 33.0056 24.3735 33.0056 25.1639V56.6467H38.6828V13.0914C38.6828 12.3011 39.1297 11.5256 40.0054 10.9331C40.9824 10.272 42.5523 9.81513 44.3297 9.81513C46.1071 9.81513 47.677 10.272 48.6541 10.9331C49.5298 11.5256 49.9767 12.3011 49.9767 13.0914V56.6467ZM6.63287 56.6467H14.1425V37.8285C13.1754 38.3074 11.852 38.6175 10.3877 38.6175C8.92341 38.6175 7.59999 38.3074 6.63287 37.8285V56.6467ZM23.6039 56.6467H31.1135V27.6514C30.1464 28.1302 28.823 28.4402 27.3587 28.4402C25.8944 28.4402 24.571 28.1302 23.6039 27.6514V56.6467ZM40.5749 56.6467H48.0845V15.5789C47.1174 16.0578 45.794 16.3678 44.3297 16.3678C42.8654 16.3678 41.542 16.0578 40.5749 15.5789V56.6467ZM31.1135 25.1639C31.1135 24.9227 30.8885 24.7491 30.6212 24.5683C29.8867 24.0713 28.6948 23.7758 27.3587 23.7758C26.0226 23.7758 24.8307 24.0713 24.0962 24.5683C23.8289 24.7491 23.6039 24.9227 23.6039 25.1639C23.6039 25.4051 23.8289 25.5786 24.0962 25.7595C24.8307 26.2565 26.0226 26.552 27.3587 26.552C28.6948 26.552 29.8867 26.2565 30.6212 25.7595C30.8885 25.5786 31.1135 25.4051 31.1135 25.1639ZM48.0845 13.0914C48.0845 12.8503 47.8595 12.6767 47.5922 12.4959C46.8577 11.999 45.6658 11.7034 44.3297 11.7034C42.9936 11.7034 41.8017 11.999 41.0672 12.4959C40.8001 12.6767 40.5749 12.8503 40.5749 13.0914C40.5749 13.3327 40.8001 13.5062 41.0672 13.687C41.8017 14.184 42.9936 14.4796 44.3297 14.4796C45.6658 14.4796 46.8577 14.184 47.5922 13.687C47.8595 13.5062 48.0845 13.3327 48.0845 13.0914ZM10.3877 33.953C9.05161 33.953 7.85968 34.2486 7.12518 34.7455C6.85791 34.9263 6.63287 35.0999 6.63287 35.3412C6.63287 35.5824 6.85791 35.7559 7.12518 35.9367C7.85968 36.4336 9.05161 36.7292 10.3877 36.7292C11.7238 36.7292 12.9157 36.4336 13.6502 35.9367C13.9173 35.7559 14.1425 35.5824 14.1425 35.3412C14.1425 35.0999 13.9173 34.9263 13.6502 34.7455C12.9157 34.2486 11.7238 33.953 10.3877 33.953ZM45.0229 3.35529C33.4074 13.253 20.6969 19.5052 8.67685 23.5465C8.18205 23.7129 7.64492 23.447 7.47818 22.9533C7.31144 22.4595 7.57787 21.9235 8.07266 21.7572C19.8394 17.801 32.2823 11.6938 43.6614 2.03236L41.8433 2.12913C41.3219 2.15686 40.8761 1.75691 40.8483 1.23659C40.8204 0.716269 41.2212 0.271239 41.7426 0.243506L46.2922 0.00134176C46.5761 -0.013764 46.8518 0.0992932 47.0429 0.309358C47.234 0.519304 47.3205 0.803953 47.2782 1.08447L46.6219 5.44308C46.5443 5.95832 46.0622 6.31378 45.5458 6.23636C45.0294 6.15895 44.6732 5.6778 44.7508 5.16256L45.0229 3.35529Z" fill="#E6F482"/>
</svg>
