<svg width="68" height="52" viewBox="0 0 68 52" fill="none" xmlns="http://www.w3.org/2000/svg">
<path d="M6.24483 52H61.7442C62.3698 52 62.8776 51.4994 62.8776 50.8827V17.8011H66.8669C67.3962 17.8011 67.8552 17.4402 67.9719 16.9318C68.0886 16.4235 67.8336 15.9028 67.3576 15.676L34.4909 0.110615C34.1815 -0.0368715 33.8189 -0.0368715 33.5095 0.110615L0.642761 15.676C0.166761 15.9017 -0.0893728 16.4223 0.0284939 16.9318C0.146361 17.4413 0.604228 17.8011 1.1335 17.8011H5.1115V50.8827C5.1115 51.4994 5.61923 52 6.24483 52ZM34.0002 2.35754L61.8904 15.5665H61.7442C61.1186 15.5665 60.6109 16.067 60.6109 16.6838V49.7654H7.37817V16.6838C7.37817 16.067 6.87043 15.5665 6.24483 15.5665H6.10997L34.0002 2.35754Z" fill="#E6F482"/>
<path d="M11.1685 45H25.015C25.015 45 25.0208 44.9989 25.0231 44.9989H40.2192C40.2192 44.9989 40.2251 45 40.2274 45H56.8315C57.4765 45 58 44.4913 58 43.8644V39.6968C58 36.197 55.8091 33.1854 52.6928 31.892C53.9208 30.7939 54.7049 29.2347 54.7049 27.4882C54.7049 24.1791 51.9344 21.4867 48.5283 21.4867C45.1222 21.4867 42.3529 24.1791 42.3529 27.4882C42.3529 29.237 43.1393 30.7984 44.372 31.8965C43.8953 32.0941 43.4372 32.3337 43.0014 32.6131C41.8586 31.2072 40.3384 30.1103 38.5892 29.4584C40.2029 28.1684 41.2335 26.2141 41.2335 24.0292C41.2335 20.1524 37.9886 17 34.0006 17C30.0126 17 26.7677 20.1535 26.7677 24.0292C26.7677 26.2141 27.7983 28.1684 29.412 29.4584C26.7922 30.435 24.6773 32.4121 23.5859 34.9149C23.073 34.4857 22.5062 34.128 21.8963 33.8463C22.8451 32.9083 23.434 31.6263 23.434 30.2102C23.434 27.3474 21.0375 25.0172 18.0906 25.0172C15.1437 25.0172 12.7471 27.3463 12.7471 30.2102C12.7471 31.6217 13.3337 32.9015 14.2778 33.8384C11.7539 35.0035 10 37.4984 10 40.3895V43.8644C10 44.4913 10.5235 45 11.1685 45ZM48.5306 23.7578C50.6479 23.7578 52.3703 25.4317 52.3703 27.4882C52.3703 29.53 50.6713 31.1902 48.5762 31.2141H48.4862C46.3911 31.1902 44.6922 29.53 44.6922 27.4882C44.6922 25.4305 46.4145 23.7578 48.5306 23.7578ZM47.777 33.4852H48.4851C48.5003 33.4852 48.5143 33.4898 48.5306 33.4898C48.547 33.4898 48.5598 33.4852 48.5762 33.4852H49.2855C52.8038 33.4852 55.6654 36.2719 55.6654 39.6968V42.7288H45.2308V38.8168C45.2308 37.2917 44.8686 35.8518 44.24 34.5561C45.2799 33.8724 46.501 33.4864 47.7793 33.4864L47.777 33.4852ZM34.0006 19.27C36.7009 19.27 38.8965 21.4049 38.8965 24.0281C38.8965 26.6513 36.6998 28.7862 34.0006 28.7862C31.3014 28.7862 29.1046 26.6513 29.1046 24.0281C29.1046 21.4049 31.3014 19.27 34.0006 19.27ZM33.0903 31.0585H34.912C39.3137 31.0585 42.8939 34.5379 42.8939 38.8156V42.7266H25.1096V38.8156C25.1096 34.5379 28.6887 31.0585 33.0903 31.0585ZM18.0906 27.2884C19.7475 27.2884 21.0971 28.5988 21.0971 30.2102C21.0971 31.8216 19.7486 33.1321 18.0906 33.1321C16.4325 33.1321 15.0841 31.8216 15.0841 30.2102C15.0841 28.5988 16.4325 27.2884 18.0906 27.2884ZM12.3381 40.3895C12.3381 37.6403 14.6389 35.4043 17.4678 35.4043H18.718C20.3668 35.4043 21.9208 36.2004 22.8731 37.4927C22.8136 37.9265 22.7727 38.3671 22.7727 38.8168V42.7288H12.3381V40.3895Z" fill="#E6F482"/>
</svg>
