<svg width="62" height="61" viewBox="0 0 62 61" fill="none" xmlns="http://www.w3.org/2000/svg">
<path d="M60.2931 39.4997C59.7008 38.7379 57.444 36.4525 53.3163 38.9278C51.5884 39.9633 50.3446 41.0662 49.2479 42.0363C48.5698 42.6388 47.9836 43.1576 47.3852 43.5722C46.9216 43.8949 46.8072 44.5301 47.1299 44.9917C47.4506 45.4594 48.0878 45.5697 48.5494 45.249C49.2479 44.765 49.9035 44.1829 50.5999 43.5661C51.6334 42.6531 52.8016 41.6176 54.3661 40.6782C56.0061 39.6937 57.3745 39.5916 58.3242 40.38C59.1024 41.0274 59.2698 42.0077 59.2617 42.1262L49.5767 51.4088L36.2685 57.8239C35.4659 58.1997 34.0117 58.3182 33.1764 58.0895L16.7618 53.1224C16.6658 53.0938 16.5657 53.0795 16.4656 53.0795H15.0625V55.1219H16.3145L32.6066 60.0522C33.0845 60.1849 33.6441 60.2503 34.2221 60.2503C35.2494 60.2503 36.3359 60.0481 37.1427 59.6723L50.6101 53.1837C50.7082 53.1367 50.798 53.0754 50.8736 52.9998L60.6934 43.5906C61.5573 42.7226 61.3796 40.8885 60.2931 39.4997Z" fill="#E6F482"/>
<path d="M44.1097 43.8193C42.8864 42.5122 40.9155 41.8688 38.2583 41.8688H32.458C32.2435 41.8688 32.0474 41.2908 31.8881 41.1336C30.6157 39.8816 27.6318 37.7698 21.9805 37.7698C21.0022 37.7698 20.0811 37.829 19.2458 37.9536C18.6882 38.0373 18.3043 38.5561 18.386 39.1116C18.4697 39.6692 18.9885 40.047 19.546 39.9715C20.2813 39.8591 21.1003 39.804 21.9785 39.804C26.9027 39.804 29.3474 41.6156 30.4523 42.5918C31.0201 43.0861 31.3428 43.9112 32.2721 43.9112H38.2604C40.3313 43.9112 41.7978 44.3565 42.6209 45.2347C43.3888 46.0578 43.4929 47.996 43.4766 47.996H31.6594C31.0957 47.996 30.6382 48.4555 30.6382 49.0172C30.6382 49.5809 31.0957 50.0384 31.6594 50.0384H44.4508C45.0125 50.0384 45.472 49.5645 45.472 48.9988L45.4863 48.7088C45.5476 47.7529 45.6926 45.5084 44.1097 43.8193Z" fill="#E6F482"/>
<path d="M15.3183 56.1654H8.16992V54.123H14.2971V39.8263H8.16992V37.7839H15.3183C15.882 37.7839 16.3394 38.2067 16.3394 38.7684V55.1074C16.3394 55.6752 15.882 56.1654 15.3183 56.1654Z" fill="#E6F482"/>
<path d="M1.02119 60.2503C0.457493 60.2503 0 59.7928 0 59.2291C0 58.6654 0.457493 58.2079 1.02119 58.2079H8.16953V39.8264H1.02119C0.457493 39.8264 0 39.3689 0 38.8052C0 38.2416 0.457493 37.7841 1.02119 37.7841H9.19072C9.75441 37.7841 10.2119 38.2068 10.2119 38.7685V59.1923C10.2119 59.7601 9.75441 60.2503 9.19072 60.2503H1.02119Z" fill="#E6F482"/>
<path d="M43.2804 37.5678C41.285 37.5678 39.7308 37.1266 39.6368 37.1001C39.2835 36.9959 39.0098 36.712 38.9261 36.3505C38.8669 36.0952 37.525 30.0559 42.8066 26.4878C43.2723 26.1692 43.9095 26.2959 44.224 26.7615C44.5386 27.2292 44.416 27.8644 43.9483 28.1789C40.6887 30.3806 40.6764 33.8792 40.8214 35.2803C41.7936 35.4723 43.7584 35.7317 45.6312 35.2456C48.1434 34.59 49.8344 33.1603 50.7985 30.881C51.3254 29.6331 52.3098 28.5404 53.5026 27.797C51.9932 27.2272 49.8447 26.639 47.6634 26.8596C47.1201 26.8943 46.6034 26.5021 46.5503 25.9405C46.4952 25.3809 46.9077 24.8805 47.4694 24.8253C52.128 24.3903 56.4334 26.882 56.6152 26.9882C56.9848 27.2047 57.1789 27.6295 57.1012 28.0523C57.0236 28.4751 56.6907 28.8019 56.27 28.8754C54.7443 29.1368 53.2677 30.2867 52.6815 31.6755C51.4704 34.5389 49.2728 36.4036 46.15 37.2206C45.1676 37.4779 44.1791 37.5678 43.2804 37.5678Z" fill="#E6F482"/>
<path d="M28.0704 33.4828C27.1718 33.4828 26.1812 33.3929 25.1947 33.1356C22.0719 32.3207 19.8743 30.454 18.6632 27.5905C18.077 26.2017 16.6004 25.0519 15.0747 24.7904C14.652 24.7169 14.3191 24.3901 14.2435 23.9674C14.1659 23.5466 14.3599 23.1218 14.7296 22.9033C14.7868 22.8686 16.1449 22.0761 18.1383 21.4471C18.6775 21.2816 19.2494 21.5757 19.4189 22.1129C19.5884 22.6521 19.2902 23.2239 18.751 23.3934C18.4263 23.4976 18.1199 23.6059 17.836 23.71C19.0308 24.4534 20.0153 25.5461 20.5422 26.7961C21.5062 29.0753 23.1973 30.503 25.7094 31.1606C27.5945 31.6488 29.5532 31.3894 30.5213 31.1974C30.6826 29.7289 30.6724 25.9914 26.9165 23.7958C25.7584 23.1177 24.4105 22.7603 22.9134 22.7317C22.3497 22.7215 21.9004 22.2558 21.9106 21.6901C21.9208 21.1284 22.4008 20.6893 22.9502 20.6893C24.8006 20.7241 26.4814 21.1754 27.9458 22.0312C32.7168 24.8211 32.9558 29.9474 32.4146 32.2676C32.3308 32.6291 32.0592 32.913 31.7038 33.0171C31.616 33.0437 30.0638 33.4828 28.0704 33.4828Z" fill="#E6F482"/>
<path d="M35.7092 19.4026C35.3702 19.4026 35.0495 19.3393 34.7207 19.3025V42.8634L36.7631 42.8655V19.2964C36.4138 19.3372 36.0707 19.4026 35.7092 19.4026Z" fill="#E6F482"/>
<path d="M35.709 20.4238C30.0781 20.4238 25.4971 15.8428 25.4971 10.2119C25.4971 4.58106 30.0781 0 35.709 0C41.3398 0 45.9209 4.58106 45.9209 10.2119C45.9209 15.8428 41.3398 20.4238 35.709 20.4238ZM35.709 2.04238C31.2055 2.04238 27.5395 5.70846 27.5395 10.2119C27.5395 14.7154 31.2055 18.3814 35.709 18.3814C40.2124 18.3814 43.8785 14.7154 43.8785 10.2119C43.8785 5.70846 40.2124 2.04238 35.709 2.04238Z" fill="#E6F482"/>
<path d="M35.5188 36.8261C35.2798 36.8261 35.0408 36.7424 34.8468 36.5729L30.762 32.9987C30.3372 32.627 30.2943 31.9837 30.6661 31.5588C31.0378 31.1299 31.6832 31.0911 32.108 31.4629L36.1927 35.037C36.6176 35.4087 36.6604 36.0521 36.2887 36.4769C36.0845 36.7097 35.8026 36.8261 35.5188 36.8261Z" fill="#E6F482"/>
<path d="M35.866 40.5923C35.578 40.5923 35.29 40.4698 35.0878 40.2329C34.7222 39.8019 34.7754 39.1586 35.2043 38.793L39.2604 35.3434C39.6873 34.9778 40.3327 35.0289 40.7003 35.4598C41.0659 35.8908 41.0128 36.5341 40.5839 36.8997L36.5277 40.3493C36.3357 40.5127 36.0988 40.5923 35.866 40.5923Z" fill="#E6F482"/>
<path d="M48.1241 5.10593C47.7728 5.10593 47.4277 4.92211 47.2398 4.59533C46.9559 4.1072 47.1234 3.48224 47.6135 3.19834L51.1489 1.15596C51.635 0.872073 52.262 1.03955 52.5438 1.53176C52.8277 2.01989 52.6603 2.64486 52.1701 2.92875L48.6347 4.97113C48.4713 5.06304 48.2957 5.10593 48.1241 5.10593Z" fill="#E6F482"/>
<path d="M54.1226 11.2331H50.0378C49.4741 11.2331 49.0166 10.7756 49.0166 10.2119C49.0166 9.64817 49.4741 9.19067 50.0378 9.19067H54.1226C54.6863 9.19067 55.1437 9.64817 55.1437 10.2119C55.1437 10.7756 54.6863 11.2331 54.1226 11.2331Z" fill="#E6F482"/>
<path d="M21.4448 11.2331H17.3601C16.7964 11.2331 16.3389 10.7756 16.3389 10.2119C16.3389 9.64817 16.7964 9.19067 17.3601 9.19067H21.4448C22.0085 9.19067 22.466 9.64817 22.466 10.2119C22.466 10.7756 22.0085 11.2331 21.4448 11.2331Z" fill="#E6F482"/>
<path d="M23.3603 5.10593C23.1867 5.10593 23.011 5.06304 22.8497 4.97114L19.3143 2.92876C18.8262 2.64487 18.6587 2.02194 18.9406 1.53177C19.2224 1.0416 19.8494 0.878205 20.3355 1.15597L23.8709 3.19835C24.359 3.48224 24.5265 4.10517 24.2446 4.59534C24.0547 4.92212 23.7095 5.10593 23.3603 5.10593Z" fill="#E6F482"/>
</svg>
