<svg width="64" height="62" viewBox="0 0 64 62" fill="none" xmlns="http://www.w3.org/2000/svg">
<path d="M26.0213 55.4037L25.8353 56.3126L26.0145 55.4027C25.512 55.3036 25.024 55.6308 24.9249 56.1333C24.8259 56.6363 25.153 57.1239 25.656 57.2229C25.6574 57.2234 25.6715 57.2258 25.6729 57.2263C25.7319 57.2374 25.7903 57.2432 25.8483 57.2432C26.2846 57.2432 26.6736 56.934 26.7582 56.4894C26.8548 55.9859 26.5248 55.4998 26.0213 55.4037Z" fill="#E6F482"/>
<path d="M33.1149 55.7018L33.2072 56.6247L33.112 55.7023C32.6022 55.7545 32.2316 56.2101 32.2843 56.7199C32.3331 57.1973 32.7361 57.5529 33.2058 57.5529C33.2376 57.5529 33.27 57.551 33.3019 57.5481L33.3275 57.5452C33.8349 57.4858 34.1949 57.0282 34.1383 56.5208C34.0813 56.0139 33.6223 55.6486 33.1149 55.7018Z" fill="#E6F482"/>
<path d="M29.5629 55.8188C29.5629 55.8188 29.5499 55.8183 29.5494 55.8183C29.0382 55.7952 28.611 56.1923 28.5878 56.7041C28.5651 57.2158 28.9671 57.6492 29.4789 57.6724C29.4934 57.6734 29.5074 57.6734 29.5219 57.6734C30.0147 57.6734 30.4255 57.2854 30.4477 56.7877C30.4709 56.2759 30.0751 55.842 29.5629 55.8188Z" fill="#E6F482"/>
<path d="M22.5945 54.4609L22.583 54.4565C22.1007 54.2835 21.575 54.5358 21.402 55.018C21.2285 55.5002 21.4846 56.0337 21.9669 56.2072C22.0708 56.2444 22.1766 56.2618 22.2805 56.2618C22.6607 56.2618 23.0178 56.0265 23.1536 55.6476C23.3271 55.1654 23.0768 54.6339 22.5945 54.4609Z" fill="#E6F482"/>
<path d="M36.6157 55.0522L36.8442 55.9514L36.6128 55.0531C36.1165 55.1807 35.8179 55.6866 35.9455 56.1829C36.0532 56.6013 36.4301 56.8797 36.8433 56.8797C36.9201 56.8797 36.9979 56.87 37.0757 56.8497C37.0795 56.8487 37.096 56.8444 37.1003 56.8434C37.5927 56.7091 37.8807 56.2032 37.7493 55.7098C37.6178 55.217 37.11 54.9237 36.6157 55.0522Z" fill="#E6F482"/>
<path d="M39.9706 53.8826L40.3384 54.734L39.9677 53.8835C39.4981 54.0884 39.283 54.6349 39.4874 55.1046C39.6396 55.454 39.9808 55.6622 40.3388 55.6622C40.4621 55.6622 40.5882 55.6371 40.7085 55.5849C40.7124 55.583 40.7273 55.5767 40.7312 55.5748C41.1965 55.3646 41.4019 54.8195 41.1941 54.3532C40.9863 53.8864 40.4384 53.6772 39.9706 53.8826Z" fill="#E6F482"/>
<path d="M19.0506 11.5906C19.1995 11.5906 19.3507 11.5548 19.4904 11.4804C19.9426 11.2393 20.1132 10.6773 19.8721 10.225C19.631 9.77325 19.0695 9.60171 18.6172 9.84331L18.6061 9.84911C18.1543 10.0902 17.9886 10.6493 18.2297 11.1016C18.3959 11.4137 18.7187 11.5906 19.0506 11.5906Z" fill="#E6F482"/>
<path d="M8.3192 21.9529C8.45692 22.0249 8.60429 22.0592 8.74974 22.0592C9.08363 22.0592 9.40641 21.8785 9.57215 21.562L9.58858 21.5296C9.81472 21.0696 9.6253 20.5134 9.16529 20.2878C8.70867 20.0626 8.15685 20.2481 7.92781 20.7019C7.69104 21.1551 7.86596 21.7152 8.3192 21.9529Z" fill="#E6F482"/>
<path d="M7.01358 25.4431C7.11215 25.4765 7.21218 25.4924 7.31123 25.4924C7.6978 25.4924 8.05875 25.2484 8.1897 24.8618L8.20178 24.8251C8.35254 24.3356 8.07759 23.8162 7.58763 23.6659C7.10201 23.5161 6.58643 23.7857 6.43132 24.2689C6.26848 24.7536 6.52893 25.2793 7.01358 25.4431Z" fill="#E6F482"/>
<path d="M10.1496 18.7072C10.3143 18.827 10.5052 18.885 10.6946 18.885C10.9811 18.885 11.2643 18.7521 11.4455 18.5028L11.4576 18.4864C11.7552 18.0698 11.6581 17.4919 11.2426 17.1943C10.8265 16.8961 10.2467 16.9918 9.94806 17.4074L10.6956 17.9572L9.94516 17.4112C9.64364 17.8258 9.73545 18.4061 10.1496 18.7072Z" fill="#E6F482"/>
<path d="M15.9017 13.5946C16.0964 13.5946 16.2926 13.5332 16.4603 13.4057C16.8739 13.1032 16.9633 12.5229 16.6608 12.1092C16.3578 11.6956 15.7775 11.6062 15.3644 11.9087L15.3412 11.9256C14.9333 12.2353 14.8522 12.8186 15.1619 13.2269C15.3445 13.4675 15.6214 13.5946 15.9017 13.5946Z" fill="#E6F482"/>
<path d="M6.18466 39.5132C6.30739 39.9119 6.67366 40.1675 7.06988 40.1675C7.16024 40.1675 7.25254 40.1539 7.34338 40.1259C7.83045 39.9766 8.10539 39.4606 7.95946 38.9725C7.81982 38.4854 7.31487 38.1994 6.82345 38.3332C6.32913 38.4681 6.03776 38.9783 6.17258 39.4726C6.17547 39.4823 6.18176 39.5036 6.18466 39.5132Z" fill="#E6F482"/>
<path d="M13.0988 16.0395C13.3399 16.0395 13.581 15.9463 13.7632 15.7607C14.1251 15.3983 14.1251 14.8107 13.7632 14.4488C13.4008 14.0864 12.8132 14.0864 12.4508 14.4488L12.4353 14.4643C12.0768 14.8301 12.084 15.4167 12.4498 15.7752C12.6301 15.9521 12.8644 16.0395 13.0988 16.0395Z" fill="#E6F482"/>
<path d="M7.21036 35.4681C7.14512 34.9641 6.68463 34.6065 6.18017 34.6665C5.67183 34.7273 5.30847 35.1888 5.36887 35.6976L5.37418 35.7348C5.44183 36.1958 5.83757 36.5263 6.29034 36.5263C6.33479 36.5263 6.38021 36.5229 6.42612 36.5162C6.93106 36.4427 7.28139 35.973 7.21036 35.4681Z" fill="#E6F482"/>
<path d="M6.04459 32.8109C6.05425 32.8109 6.06343 32.8114 6.07261 32.8114C6.57225 32.8114 6.9849 32.4137 6.9994 31.9107L7.00036 31.8711C7.00036 31.3584 6.58481 30.9434 6.07261 30.9434C5.5638 30.9434 5.15114 31.3521 5.14486 31.859C5.13133 32.3703 5.53384 32.796 6.04459 32.8109Z" fill="#E6F482"/>
<path d="M6.24782 29.0903C6.30339 29.1 6.35799 29.1048 6.41259 29.1048C6.85327 29.1048 7.24418 28.7893 7.32488 28.3404C7.3273 28.3269 7.32923 28.3134 7.33116 28.2998C7.40606 27.7929 7.05573 27.3213 6.54837 27.2469C6.04729 27.1725 5.5781 27.517 5.4974 28.0167C5.40946 28.5202 5.7448 29 6.24782 29.0903Z" fill="#E6F482"/>
<path d="M50.0123 19.0002C50.1921 19.2612 50.4811 19.4008 50.7758 19.4008C50.957 19.4008 51.1406 19.3476 51.3011 19.237C51.7229 18.9471 51.8297 18.3692 51.5398 17.9468L50.7686 18.4629L51.5369 17.9425C51.2489 17.5182 50.6719 17.4076 50.2482 17.6951C49.8239 17.9826 49.7132 18.5595 50.0008 18.9838L50.0123 19.0002Z" fill="#E6F482"/>
<path d="M54.7498 28.3361C54.2405 28.3931 53.8742 28.8526 53.9317 29.3619L53.9366 29.402C54.0028 29.8644 54.3999 30.1983 54.8542 30.1983C54.8976 30.1983 54.9421 30.1954 54.9866 30.1892C55.4896 30.1172 55.8404 29.6538 55.7751 29.1512C55.7167 28.6434 55.2557 28.2791 54.7498 28.3361Z" fill="#E6F482"/>
<path d="M53.1844 25.718L53.1883 25.7301C53.3071 26.1345 53.6768 26.3964 54.0778 26.3964C54.1643 26.3964 54.2523 26.3844 54.3397 26.3583C54.8316 26.2138 55.1129 25.6982 54.9684 25.2063L54.9645 25.1942C54.82 24.7023 54.3045 24.4211 53.8126 24.5661C53.3211 24.7105 53.0399 25.2261 53.1844 25.718Z" fill="#E6F482"/>
<path d="M51.8739 22.2491C52.0357 22.5782 52.3667 22.77 52.7108 22.77C52.8475 22.77 52.9867 22.7396 53.1176 22.6748C53.5772 22.4487 53.768 21.8959 53.5414 21.4359L52.7006 21.8278L53.5404 21.434C53.323 20.9701 52.7707 20.7705 52.3068 20.988C51.8429 21.2054 51.6429 21.7577 51.8603 22.2216L51.8739 22.2491Z" fill="#E6F482"/>
<path d="M47.6755 16.1027C47.8572 16.2883 48.0973 16.3811 48.3379 16.3811C48.5723 16.3811 48.8067 16.2931 48.9874 16.1158C49.3507 15.7601 49.359 15.1789 49.0086 14.8126C48.6612 14.4381 48.0756 14.4154 47.6996 14.7623C47.3232 15.1098 47.3 15.6968 47.6474 16.0733L47.6755 16.1027Z" fill="#E6F482"/>
<path d="M55.052 32.2098C54.5422 32.1967 54.1155 32.5963 54.0977 33.1061C54.0745 33.614 54.4644 34.0464 54.9727 34.0749C54.9906 34.0759 55.0075 34.0764 55.0254 34.0764C55.5139 34.0764 55.9232 33.6942 55.9507 33.1999L55.9522 33.1617C55.9667 32.65 55.5637 32.2248 55.052 32.2098Z" fill="#E6F482"/>
<path d="M41.7427 11.5472L41.7649 11.5592C41.9031 11.6327 42.0514 11.6675 42.1974 11.6675C42.5274 11.6675 42.8468 11.4897 43.0145 11.178C43.2561 10.7281 43.086 10.1657 42.6376 9.92215L42.1887 10.7339L42.6347 9.92022C42.1853 9.67378 41.6214 9.83856 41.375 10.2879C41.129 10.7368 41.2933 11.3012 41.7427 11.5472Z" fill="#E6F482"/>
<path d="M44.8805 13.5819L44.895 13.593C45.0627 13.7201 45.2594 13.7814 45.4551 13.7814C45.7353 13.7814 46.0122 13.6549 46.1948 13.4142C46.5046 13.0059 46.4244 12.4241 46.0165 12.1144L46.0103 12.11C45.6039 11.7979 45.0216 11.8742 44.7095 12.2806C44.3973 12.687 44.4742 13.2697 44.8805 13.5819Z" fill="#E6F482"/>
<path d="M62.7619 46.2552L58.4068 41.8923C58.0361 41.5212 57.5438 41.3168 57.0195 41.3168C56.4957 41.3168 56.0028 41.5212 55.6327 41.8923L55.5317 41.9933L55.2456 41.7072C54.8924 41.3531 54.6189 40.9409 54.4334 40.492C54.417 40.4326 54.3952 40.3746 54.3672 40.32C54.2251 39.9208 54.1512 39.4961 54.1512 39.0598V37.8257C54.2357 37.8701 54.328 37.9025 54.4271 37.9194C54.4802 37.9286 54.5329 37.9329 54.5851 37.9329C55.0253 37.9329 55.4148 37.6189 55.4964 37.1724C55.5955 36.6708 55.2703 36.1833 54.7682 36.0828C54.5474 36.0388 54.329 36.077 54.1454 36.1765C54.0884 34.8583 53.5496 33.6271 52.6122 32.6878L48.3871 28.4554C47.439 27.5059 46.1783 26.9831 44.8374 26.9831C43.7995 26.9831 42.8109 27.2976 41.9769 27.8799L41.5285 27.4291V16.8179C41.5285 15.5389 41.0641 14.3048 40.2214 13.3437C39.6217 12.6604 39.2917 11.7829 39.2917 10.8726V10.0951H39.3555C40.4369 10.0951 41.3168 9.21518 41.3168 8.13328V1.96181C41.3168 0.879914 40.4369 0 39.3555 0H22.0254C20.944 0 20.0641 0.879914 20.0641 1.96181V8.13328C20.0641 9.21518 20.944 10.0951 22.0254 10.0951H22.1684V10.5019C22.1684 11.5022 21.7794 12.4425 21.0735 13.1494L19.203 15.0233C18.2105 16.0177 17.664 17.3393 17.664 18.7454V24.7308C17.664 25.5441 17.8592 26.3119 18.2028 26.9922C16.9725 27.0633 15.8259 27.576 14.9474 28.4554L10.7223 32.6878C9.72979 33.6822 9.18329 35.0042 9.18329 36.4099V39.0598C9.18329 40.06 8.79479 41.0003 8.08883 41.7072L7.80616 41.9904C7.80471 41.9914 7.80374 41.9923 7.80277 41.9933L7.70227 41.8923C7.33165 41.5212 6.83926 41.3168 6.31499 41.3168C5.7912 41.3168 5.29833 41.5212 4.92819 41.8923L0.572596 46.2552C-0.190865 47.0201 -0.190865 48.2648 0.572596 49.0297L2.06425 50.5233C2.42617 50.8862 3.01374 50.8867 3.37614 50.5247C3.73855 50.1623 3.73951 49.5752 3.37711 49.2124L1.88594 47.7183C1.84391 47.6763 1.84391 47.6081 1.88594 47.5661L6.24154 43.2032C6.28213 43.1627 6.34833 43.1622 6.38892 43.2032L7.1461 43.9619H7.14658L17.4857 54.3189L18.6439 55.4795C18.686 55.5216 18.686 55.5897 18.6439 55.6317L14.2888 59.9946C14.2477 60.0356 14.1815 60.0356 14.141 59.9946L6.00381 51.8434C5.64189 51.4805 5.05431 51.48 4.69191 51.842C4.32902 52.2044 4.32854 52.7915 4.69046 53.1543L12.8281 61.3055C13.1982 61.6766 13.6911 61.881 14.2154 61.881C14.7392 61.881 15.2315 61.6766 15.6022 61.3055L19.9573 56.9427C20.7207 56.1782 20.7207 54.9335 19.9573 54.1686L19.9099 54.1212L20.4593 53.5709C21.101 52.9277 21.9534 52.5412 22.8594 52.4827C24.1346 52.4001 25.3344 51.856 26.2375 50.9509L30.2384 46.9413C31.3923 46.6383 32.2906 45.6985 32.5346 44.5214C32.9458 44.7171 33.4053 44.8273 33.8905 44.8273C35.6353 44.8273 37.055 43.4062 37.055 41.6589V39.456C37.4541 39.6382 37.8972 39.7406 38.364 39.7406C40.1088 39.7406 41.528 38.3195 41.528 36.5722V30.0596L44.3818 32.9274C44.563 33.1096 44.8012 33.2004 45.0394 33.2004C45.2762 33.2004 45.513 33.1106 45.6942 32.9303C46.057 32.5689 46.0585 31.9818 45.6971 31.6184L43.3178 29.2275C43.7783 28.9739 44.2972 28.8386 44.8374 28.8386C45.6821 28.8386 46.4765 29.1681 47.0737 29.7668L51.2988 33.9987C51.9415 34.6428 52.2957 35.499 52.2957 36.4099V39.0598C52.2957 40.5553 52.877 41.9609 53.9323 43.0182L54.2203 43.3066L52.8746 44.6548L44.7355 52.8079L44.2817 52.3532C44.2769 52.3488 44.2726 52.344 44.2677 52.3397L44.188 52.2594C43.2274 51.2974 41.9513 50.719 40.5954 50.631C39.7706 50.5774 38.9945 50.2256 38.4074 49.6381L35.3589 46.606C34.9955 46.2445 34.408 46.246 34.0465 46.6093C33.6856 46.9727 33.687 47.5603 34.0504 47.9212L37.097 50.9509C38.0001 51.856 39.1999 52.4001 40.4756 52.4827C41.3811 52.5412 42.2335 52.9277 42.8751 53.5704L42.9201 53.6153C42.9442 53.6429 42.9699 53.6685 42.9969 53.6926L43.4245 54.1207L43.3772 54.1686C42.6137 54.9335 42.6137 56.1777 43.3772 56.9427L47.7323 61.3055C48.1029 61.6766 48.5953 61.881 49.1196 61.881C49.6434 61.881 50.1362 61.6766 50.5069 61.3055L62.7619 49.0292C63.5253 48.2643 63.5253 47.0201 62.7619 46.2552ZM54.7731 37.0298L54.7557 37.0269L54.5866 36.9926L54.7731 37.0298ZM24.9241 49.64C24.3399 50.2256 23.5639 50.5774 22.7396 50.631C21.3832 50.719 20.1071 51.2974 19.1465 52.2594L18.599 52.8079L18.1061 52.314C18.0998 52.3078 18.0936 52.301 18.0873 52.2952L9.11419 43.3066L9.40218 43.0182C10.4575 41.9609 11.0388 40.5553 11.0388 39.0598V36.4099C11.0388 35.499 11.3925 34.6428 12.0356 33.9987L16.2608 29.7668C16.858 29.1681 17.6524 28.8386 18.497 28.8386C19.0387 28.8386 19.5596 28.9748 20.0215 29.2304L17.6384 31.6175C17.2765 31.9799 17.2769 32.5674 17.6394 32.9294C17.8206 33.1101 18.0578 33.2004 18.2951 33.2004C18.5328 33.2004 18.7705 33.1096 18.9517 32.9284L21.7983 30.0765V41.6589C21.7983 43.4062 23.2179 44.8273 24.9628 44.8273C25.4547 44.8273 25.9205 44.7142 26.3361 44.5132C26.5245 45.4327 27.1121 46.2078 27.9084 46.6494L24.9241 49.64ZM39.673 36.5727C39.673 37.2966 39.0854 37.8856 38.364 37.8856C37.642 37.8856 37.055 37.2966 37.055 36.5727V26.2239C37.055 25.7118 36.6399 25.2962 36.1272 25.2962C35.6145 25.2962 35.1995 25.7118 35.1995 26.2239V41.6594C35.1995 42.3832 34.6124 42.9718 33.8905 42.9718C33.2425 42.9718 32.7047 42.4973 32.6008 41.8764V26.2133C32.6008 25.7006 32.1857 25.2856 31.673 25.2856C31.5083 25.2856 31.3532 25.3291 31.2188 25.4044C30.9255 25.5605 30.726 25.8688 30.726 26.2239V41.6589C30.726 41.7768 30.7327 41.8923 30.7453 42.0068V43.8763C30.7453 44.6002 30.1582 45.1892 29.4363 45.1892C28.7149 45.1892 28.1278 44.6002 28.1278 43.8763V26.2022C28.1278 25.69 27.7122 25.2745 27.2 25.2745C26.6873 25.2745 26.2718 25.69 26.2718 26.2022V41.6589C26.2718 42.3828 25.6847 42.9718 24.9633 42.9718C24.2414 42.9718 23.6543 42.3828 23.6543 41.6589V24.4013C23.6543 23.8886 23.2387 23.4731 22.7265 23.4731C22.2138 23.4731 21.7988 23.8886 21.7988 24.4013V27.5933C21.721 27.6185 21.6456 27.6537 21.5755 27.7001C20.3757 27.2493 19.5195 26.0886 19.5195 24.7308V18.7454C19.5195 17.8346 19.8737 16.9783 20.5163 16.3342L22.3868 14.4604C23.4426 13.4031 24.0239 11.9975 24.0239 10.5019V10.0951H25.8891C26.4018 10.0951 26.8168 9.67954 26.8168 9.16734C26.8168 8.65466 26.4018 8.23959 25.8891 8.23959H22.0254C21.9669 8.23959 21.9196 8.19175 21.9196 8.13328V1.96181C21.9196 1.90334 21.9669 1.8555 22.0254 1.8555H39.355C39.414 1.8555 39.4613 1.90334 39.4613 1.96181V8.13328C39.4613 8.19223 39.414 8.23959 39.355 8.23959H30.2447C29.7325 8.23959 29.3169 8.65466 29.3169 9.16734C29.3169 9.67954 29.7325 10.0951 30.2447 10.0951H37.4362V10.8726C37.4362 12.2333 37.9296 13.5452 38.8259 14.5676C39.3719 15.19 39.673 15.9892 39.673 16.8179V36.5727ZM61.4485 47.7183L49.1935 59.9946C49.1732 60.0153 49.1486 60.0255 49.1196 60.0255C49.0911 60.0255 49.0664 60.0153 49.0457 59.9946L44.6905 55.6317C44.6485 55.5897 44.6485 55.5216 44.6905 55.4795L45.3917 54.7769L45.3922 54.7765L52.5064 47.6502L56.9456 43.2032C56.9861 43.1622 57.0523 43.1622 57.0929 43.2032L61.4485 47.5661C61.4906 47.6081 61.4906 47.6763 61.4485 47.7183Z" fill="#E6F482"/>
<path d="M24.9633 4.05811C24.4187 4.05811 23.9756 4.50217 23.9756 5.04771C23.9756 5.59373 24.4187 6.03731 24.9633 6.03731C25.5083 6.03731 25.9514 5.59373 25.9514 5.04771C25.9514 4.50217 25.5083 4.05811 24.9633 4.05811Z" fill="#E6F482"/>
<path d="M57.3231 46.3489C56.7781 46.3489 56.335 46.7929 56.335 47.3385C56.335 47.884 56.7781 48.3281 57.3231 48.3281C57.8677 48.3281 58.3108 47.884 58.3108 47.3385C58.3108 46.7929 57.8677 46.3489 57.3231 46.3489Z" fill="#E6F482"/>
<path d="M15.4602 55.8138C15.4602 55.2683 15.0171 54.8242 14.4725 54.8242C13.9275 54.8242 13.4844 55.2683 13.4844 55.8138C13.4844 56.3594 13.9275 56.8034 14.4725 56.8034C15.0171 56.8034 15.4602 56.3594 15.4602 55.8138Z" fill="#E6F482"/>
</svg>
