<svg width="81" height="92" viewBox="0 0 81 92" fill="none" xmlns="http://www.w3.org/2000/svg">
<path d="M31.469 13.0255C32.7115 12.9535 34.2601 13.2957 35.0704 12.6834C35.8807 12.0712 35.9707 10.5046 36.3128 9.35218C36.6549 8.19975 37.0061 7.20038 37.3572 6.16499C37.5105 5.58776 37.8508 5.07762 38.3248 4.71434C38.7989 4.35107 39.38 4.15515 39.9772 4.15724C40.5563 4.16815 41.1156 4.37 41.5682 4.73143C42.0208 5.09286 42.3414 5.59364 42.4801 6.15599C43.1103 8.10071 43.6956 10.0544 44.2808 12.0172C44.297 12.1651 44.3434 12.3081 44.4171 12.4374C44.4907 12.5667 44.5901 12.6796 44.709 12.769C44.828 12.8584 44.964 12.9225 45.1087 12.9574C45.2534 12.9922 45.4036 12.997 45.5503 12.9715C47.3509 12.9175 49.2146 12.9715 51.0423 12.9715C51.6376 12.915 52.2345 13.0623 52.7351 13.3895C53.2356 13.7167 53.6102 14.2042 53.7973 14.7722C54.0219 15.3466 54.0557 15.9781 53.8935 16.5732C53.7314 17.1683 53.382 17.6954 52.897 18.0764C51.3664 19.3189 49.8088 20.5343 48.2153 21.6778C47.938 21.8303 47.7311 22.0849 47.6387 22.3876C47.5462 22.6902 47.5754 23.0169 47.7201 23.2984C48.3413 25.1621 48.8995 27.0528 49.4577 28.9435C49.6905 29.5564 49.7133 30.2292 49.5227 30.8564C49.3321 31.4837 48.9387 32.03 48.4043 32.4098C47.3599 33.121 46.2525 32.995 44.956 32.0046C43.5065 30.8972 42.0389 29.7988 40.6164 28.6464C40.5319 28.5444 40.426 28.4624 40.3062 28.406C40.1863 28.3497 40.0556 28.3205 39.9232 28.3205C39.7908 28.3205 39.66 28.3497 39.5401 28.406C39.4203 28.4624 39.3144 28.5444 39.2299 28.6464C37.7534 29.8438 36.2318 30.9872 34.7282 32.1397C34.2961 32.5477 33.7382 32.7966 33.1459 32.8457C32.5537 32.8948 31.9624 32.7411 31.469 32.4098C30.9662 32.0557 30.5895 31.5505 30.3935 30.9676C30.1976 30.3847 30.1927 29.7544 30.3796 29.1686C30.9468 27.2058 31.532 25.2521 32.1803 23.3164C32.3219 23.0335 32.3485 22.7067 32.2545 22.4046C32.1605 22.1024 31.9532 21.8484 31.6761 21.6958C30.1365 20.5794 28.66 19.3819 27.1744 18.2205C26.7482 17.9202 26.4099 17.5115 26.1947 17.0366C25.9794 16.5617 25.8949 16.038 25.95 15.5195C25.9917 14.8529 26.2789 14.2255 26.7561 13.7583C27.2333 13.291 27.8666 13.0172 28.5339 12.9895C29.5423 12.9445 30.5417 12.9895 31.55 12.9895L31.469 13.0255ZM32.5584 30.1319L32.8375 30.33C33.1166 30.1409 33.4137 29.9609 33.6838 29.7538C35.1334 28.6374 36.5739 27.5119 38.0235 26.4045C38.5249 25.9309 39.1884 25.6671 39.8781 25.6671C40.5679 25.6671 41.2314 25.9309 41.7328 26.4045C43.2454 27.557 44.749 28.7274 46.2345 29.8798C46.4686 30.0599 46.7297 30.1769 46.9728 30.33C47.0651 29.9106 47.037 29.4736 46.8918 29.0695C46.3516 27.2689 45.7934 25.4682 45.2622 23.7215C44.9454 23.0273 44.9011 22.2394 45.1379 21.5141C45.3746 20.7887 45.8753 20.1787 46.5406 19.8051C48.0082 18.6526 49.4757 17.5092 50.9703 16.3928C51.2507 16.2304 51.5543 16.112 51.8706 16.0417L51.5105 15.5375C51.1323 15.5375 50.7542 15.4655 50.3761 15.4655H45.1991C44.4917 15.5551 43.7768 15.3697 43.2021 14.9475C42.6275 14.5253 42.2369 13.8985 42.111 13.1966C41.5348 11.3959 40.9766 9.49623 40.4093 7.65055C40.3103 7.33543 40.1753 7.02031 40.0582 6.75021C39.7605 6.9747 39.5453 7.2912 39.446 7.65055C38.8698 9.50524 38.3206 11.3599 37.7444 13.2056C37.6185 13.9064 37.2296 14.5326 36.6572 14.9561C36.0847 15.3795 35.3722 15.5682 34.6652 15.4835C32.9095 15.4835 31.1539 15.4835 29.3982 15.4835C29.0381 15.4835 28.678 15.5555 27.9757 15.6275C28.5159 16.0777 28.768 16.3028 29.0381 16.5279L33.4678 19.9581C34.0229 20.3338 34.4356 20.8851 34.6397 21.5235C34.8438 22.1619 34.8274 22.8505 34.5932 23.4784C34.3681 24.1987 34.152 24.919 33.9359 25.6393C33.4858 27.1248 33.0446 28.6194 32.5944 30.1139L32.5584 30.1319Z" fill="#53C22B"/>
<path d="M27.6336 83.8454V89.8776C27.6336 90.6789 27.6336 91.4352 26.5262 91.4892C25.6258 91.5433 25.2837 91.1471 25.2387 89.9407C25.0946 86.1322 24.9326 82.3328 24.8245 78.5244C24.8766 77.2045 24.5126 75.9016 23.784 74.7998C23.0553 73.698 21.999 72.853 20.764 72.3841C18.1711 71.2587 15.6231 70.0162 13.0481 68.8458C10.5571 67.7332 8.49864 65.836 7.18696 63.4438C5.04416 59.6564 2.93438 55.845 0.857603 52.0095C0.196948 50.826 -0.0927746 49.4713 0.0260286 48.1211C0.144832 46.7709 0.666676 45.4876 1.52385 44.4377C2.01321 43.81 2.64325 43.3062 3.36316 42.9668C4.08307 42.6274 4.87267 42.462 5.66827 42.4839C6.46386 42.5058 7.24317 42.7144 7.94331 43.0929C8.64345 43.4714 9.24482 44.0091 9.6989 44.6628C12.1478 47.931 14.4977 51.2802 16.9016 54.5665C17.3088 55.0886 17.825 55.5157 18.4141 55.8179C22.0155 57.6636 25.6619 59.4193 29.2812 61.22C29.5789 61.3423 29.8626 61.4963 30.1275 61.6791C30.2638 61.7689 30.3808 61.885 30.4715 62.0206C30.5623 62.1562 30.625 62.3086 30.6561 62.4688C30.6871 62.629 30.6858 62.7938 30.6523 62.9535C30.6187 63.1132 30.5535 63.2646 30.4606 63.3988C30.3933 63.538 30.2972 63.6615 30.1789 63.761C30.0605 63.8606 29.9224 63.9341 29.7736 63.9766C29.6249 64.0191 29.4688 64.0297 29.3157 64.0077C29.1626 63.9857 29.0158 63.9316 28.8851 63.8489L23.366 61.22C21.8894 60.4817 20.4579 59.6354 18.9273 59.0321C16.8335 58.1777 15.0628 56.6843 13.8675 54.7645C12.0668 52.0635 10.095 49.5156 8.19534 46.9046C6.91686 45.1039 5.54835 44.6538 4.11682 45.4461C3.36634 45.918 2.80103 46.6337 2.51577 47.473C2.23052 48.3124 2.24269 49.2243 2.55023 50.0558C2.73772 50.5193 2.96046 50.9678 3.21648 51.3973C5.11619 54.8186 7.03391 58.2218 8.9066 61.6611C10.1 63.9373 12.0434 65.7312 14.4077 66.739C16.9376 67.8374 19.4225 69.0349 21.9345 70.1783C23.507 70.8299 24.8466 71.9405 25.7782 73.3652C26.7098 74.7899 27.1901 76.4624 27.1564 78.1643C27.2194 80.064 27.1564 81.9727 27.1564 83.8724L27.6336 83.8454Z" fill="#082233"/>
<path d="M80.0153 49.6508C79.7925 50.5342 79.4912 51.3959 79.115 52.2257C76.6841 56.6194 74.1902 60.977 71.7142 65.3526C70.6447 67.2701 69.0398 68.8344 67.0955 69.8543C63.7823 71.655 60.4961 73.4557 57.1918 75.2563C56.0632 75.7906 55.1319 76.6674 54.5305 77.7618C53.9291 78.8562 53.6884 80.1124 53.8426 81.3516C54.0317 84.2237 54.2027 87.0867 54.3648 89.9588C54.4098 90.7961 54.1757 91.5614 53.1583 91.4264C52.7442 91.3723 52.0779 90.8772 52.0599 90.526C51.8258 86.7626 51.4837 82.9992 51.5917 79.2448C51.6818 76.5438 53.3924 74.455 55.7873 73.1225C59.0825 71.3219 62.3778 69.5212 65.691 67.7205C67.4765 66.7778 68.9427 65.3272 69.9046 63.552C72.2004 59.4104 74.5503 55.2959 76.8822 51.1814C77.6385 49.8399 77.6745 48.9485 77.0082 48.2012C76.5657 47.8087 76.0183 47.5536 75.433 47.4673C74.8478 47.3809 74.2501 47.467 73.713 47.7151C73.0974 47.9971 72.5436 48.3979 72.0834 48.8945C69.5985 51.5325 67.2396 54.2965 64.6556 56.8355C63.3043 58.1582 61.7701 59.2801 60.0999 60.1667C57.516 61.5442 54.7699 62.6426 52.0959 63.8671C51.3216 64.2182 50.5744 64.4343 50.0702 63.4889C49.665 62.7327 50.0702 62.0214 51.0335 61.5532C53.7345 60.3198 56.4896 59.1853 59.1366 57.8258C60.5302 57.1057 61.8054 56.1766 62.918 55.0708C65.5199 52.4418 67.9599 49.6688 70.4718 46.9678C71.2395 46.0514 72.2752 45.3987 73.4331 45.1016C74.5911 44.8044 75.8131 44.8777 76.9272 45.3112C77.8185 45.6404 78.5898 46.2305 79.1407 47.0046C79.6916 47.7787 79.9964 48.7009 80.0153 49.6508Z" fill="#082233"/>
<path d="M40.4723 64.8216C35.9706 64.6686 32.8284 63.093 30.3795 60.0768C28.3555 57.5531 27.2622 54.4093 27.2835 51.1742C27.3048 47.9392 28.4394 44.8101 30.4966 42.3132C31.6311 40.896 33.0698 39.752 34.7061 38.9658C36.3425 38.1797 38.1347 37.7715 39.9501 37.7715C41.7655 37.7715 43.5577 38.1797 45.1941 38.9658C46.8304 39.752 48.2691 40.896 49.4036 42.3132C55.5259 49.6239 52.4197 61.3013 43.5694 64.1013C42.5541 64.4097 41.5195 64.6503 40.4723 64.8216ZM29.6683 51.3166C29.8033 52.2169 29.8663 53.1803 30.0824 54.0806C30.6524 56.7259 32.2484 59.0371 34.5203 60.5072C36.7921 61.9773 39.5543 62.4863 42.2009 61.9225C46.6486 60.9142 49.9168 56.7546 50.1869 51.7577C50.52 45.5094 45.5772 40.1974 39.599 40.3955C34.0889 40.5756 29.6683 45.4644 29.6683 51.3166Z" fill="#082233"/>
<path d="M31.5417 6.56951C31.2896 6.89363 31.0825 7.46985 30.7404 7.54187C30.5141 7.60717 30.2756 7.61838 30.0441 7.57459C29.8127 7.5308 29.5948 7.43324 29.4079 7.28978C27.9854 5.54313 26.6439 3.68844 25.3294 1.88776C25.2221 1.76374 25.1449 1.61653 25.1039 1.45769C25.063 1.29885 25.0594 1.13269 25.0934 0.972223C25.1274 0.811756 25.1981 0.661344 25.3 0.532772C25.4018 0.404201 25.5321 0.300963 25.6805 0.231147C25.9489 0.14819 26.2335 0.131891 26.5096 0.183661C26.7857 0.23543 27.045 0.353709 27.2651 0.528258C28.6426 2.16687 29.8941 3.92252 31.1636 5.65117C31.3253 5.94134 31.4522 6.24959 31.5417 6.56951Z" fill="#53C22B"/>
<path d="M48.252 6.59689C48.4177 6.18251 48.6164 5.78208 48.8462 5.39944C50.0076 3.80585 51.2141 2.24827 52.3755 0.663677C52.4603 0.504299 52.5786 0.365153 52.7222 0.255787C52.8658 0.146421 53.0314 0.0694241 53.2076 0.0300808C53.3838 -0.0092626 53.5664 -0.0100212 53.7429 0.027857C53.9194 0.0657353 54.0856 0.141354 54.2302 0.249523C54.9414 0.744707 54.8604 1.47398 54.3742 2.14023C53.1318 3.80585 51.9163 5.49848 50.6108 7.11008C50.4312 7.2867 50.2141 7.42052 49.9756 7.50158C49.7371 7.58264 49.4834 7.60885 49.2333 7.57825C48.8642 7.51523 48.5761 6.95702 48.252 6.59689Z" fill="#53C22B"/>
<path d="M27.6889 24.0453C27.436 24.4806 27.1339 24.8854 26.7886 25.2517C25.6092 26.1521 24.3667 27.0524 23.1872 27.9527C22.557 28.4209 21.9178 28.547 21.3866 27.8717C21.2585 27.7302 21.1642 27.5615 21.1108 27.3782C21.0575 27.195 21.0464 27.002 21.0785 26.8139C21.1106 26.6258 21.1849 26.4474 21.296 26.2922C21.4071 26.137 21.552 26.009 21.7197 25.918C22.9802 25.0176 24.2316 24.0183 25.5461 23.1629C25.9665 22.9387 26.4586 22.8901 26.9146 23.0279C27.2027 23.0909 27.3738 23.6041 27.6889 24.0453Z" fill="#53C22B"/>
<path d="M58.5952 27.0618C58.3251 27.431 58.127 27.9082 57.7849 28.0972C57.5992 28.1794 57.3973 28.218 57.1944 28.2102C56.9916 28.2024 56.7932 28.1484 56.6144 28.0522C55.2666 27.1115 53.9824 26.0828 52.77 24.9731C52.6239 24.7163 52.5383 24.4296 52.5195 24.1347C52.5008 23.8399 52.5495 23.5446 52.6619 23.2714C52.941 22.6412 53.6613 22.6052 54.2285 23.0373C55.507 24.0217 56.7615 25.0241 57.9919 26.0445C58.2432 26.3512 58.4466 26.6942 58.5952 27.0618Z" fill="#53C22B"/>
</svg>
