<svg width="44" height="43" viewBox="0 0 44 43" fill="none" xmlns="http://www.w3.org/2000/svg">
<path d="M23.6997 20.2868L23.598 20.3949L23.6848 20.5152L29.1925 28.1533H24.1963L20.8964 23.5765L20.769 23.3998L20.6197 23.5583L16.2929 28.15H14.7981L20.0187 22.6055L20.1205 22.4974L20.0337 22.377L14.7332 15.0282H19.7287L22.8227 19.3191L22.9502 19.4958L23.0995 19.3371L27.1566 15.0262H28.6514L23.6997 20.2868ZM17.1844 16.0989H16.833L17.0385 16.3839L24.6987 27.0072L24.7525 27.0819H24.8445H26.7413H27.0927L26.8872 26.7969L19.2263 16.1736L19.1725 16.0989H19.0805H17.1844Z" fill="#082233" stroke="#082233" stroke-width="0.35961"/>
<path d="M21.9212 0.103271C10.0776 0.103271 0.476562 9.70434 0.476562 21.5479C0.476562 33.3914 10.0776 42.9925 21.9212 42.9925C33.7647 42.9925 43.3658 33.3914 43.3658 21.5479C43.3658 9.70434 33.7647 0.103271 21.9212 0.103271ZM21.9212 41.043C11.1543 41.043 2.4261 32.3148 2.4261 21.5479C2.4261 10.781 11.1543 2.0528 21.9212 2.0528C32.688 2.0528 41.4162 10.781 41.4162 21.5479C41.4162 32.3148 32.688 41.043 21.9212 41.043Z" fill="#082233"/>
</svg>
