<svg width="43" height="43" viewBox="0 0 43 43" fill="none" xmlns="http://www.w3.org/2000/svg">
<path d="M21.555 0.103027C9.71142 0.103027 0.110352 9.7041 0.110352 21.5476C0.110352 33.3912 9.71142 42.9922 21.555 42.9922C33.3985 42.9922 42.9996 33.3912 42.9996 21.5476C42.9996 9.7041 33.3985 0.103027 21.555 0.103027ZM21.555 41.0427C10.7881 41.0427 2.05988 32.3145 2.05988 21.5476C2.05988 10.7808 10.7881 2.05256 21.555 2.05256C32.3218 2.05256 41.05 10.7808 41.05 21.5476C41.05 32.3145 32.3218 41.0427 21.555 41.0427Z" fill="#082233"/>
<path fill-rule="evenodd" clip-rule="evenodd" d="M27.0418 15.8182C25.5532 14.3278 23.5735 13.5067 21.4645 13.5059C17.1185 13.5059 13.5816 17.0427 13.5798 21.3898C13.5792 22.7795 13.9422 24.136 14.6323 25.3317L13.5137 29.4173L17.6934 28.3209C18.8451 28.9492 20.1417 29.2802 21.4613 29.2806H21.4646C25.81 29.2806 29.3474 25.7434 29.349 21.3961C29.3499 19.2893 28.5305 17.3084 27.0418 15.8182ZM21.4645 27.949H21.4617C20.2859 27.9486 19.1326 27.6325 18.1263 27.0356L17.8871 26.8935L15.4068 27.5442L16.0688 25.1259L15.9129 24.8779C15.2569 23.8345 14.9105 22.6285 14.9111 21.3903C14.9124 17.7771 17.8523 14.8375 21.4671 14.8375C23.2175 14.8381 24.8629 15.5206 26.1002 16.7593C27.3375 17.9981 28.0184 19.6446 28.0178 21.3957C28.0163 25.0092 25.0766 27.949 21.4645 27.949ZM25.0591 23.0409C24.8622 22.9422 23.8935 22.4658 23.7129 22.3999C23.5325 22.3342 23.401 22.3015 23.2698 22.4986C23.1384 22.6958 22.7609 23.1396 22.6459 23.271C22.5309 23.4025 22.4161 23.419 22.2191 23.3203C22.022 23.2217 21.3873 23.0136 20.6347 22.3424C20.0491 21.8201 19.6537 21.1749 19.5387 20.9778C19.424 20.7804 19.5378 20.6841 19.6252 20.5757C19.8384 20.3109 20.052 20.0332 20.1177 19.9018C20.1834 19.7703 20.1505 19.6552 20.1011 19.5567C20.052 19.4581 19.658 18.4884 19.4939 18.0938C19.3338 17.7098 19.1716 17.7617 19.0505 17.7557C18.9358 17.7499 18.8044 17.7488 18.673 17.7488C18.5417 17.7488 18.3282 17.798 18.1476 17.9953C17.967 18.1926 17.4581 18.6691 17.4581 19.6388C17.4581 20.6085 18.1641 21.5453 18.2625 21.6768C18.361 21.8083 19.6518 23.7982 21.628 24.6515C22.098 24.8546 22.465 24.9757 22.7512 25.0665C23.2231 25.2165 23.6525 25.1953 23.992 25.1446C24.3706 25.088 25.1575 24.668 25.3218 24.2078C25.4859 23.7476 25.4859 23.3532 25.4366 23.271C25.3875 23.1888 25.2561 23.1396 25.0591 23.0409Z" fill="#082233"/>
</svg>
