<svg width="47" height="48" viewBox="0 0 47 48" fill="none" xmlns="http://www.w3.org/2000/svg">
<path fill-rule="evenodd" clip-rule="evenodd" d="M40.0523 6.95823C35.645 2.47352 29.7838 0.00263015 23.5396 0C10.6727 0 0.200982 10.6431 0.195806 23.7243C0.194081 27.906 1.26886 31.988 3.31174 35.586L0 47.8806L12.3749 44.5812C15.7847 46.4717 19.6234 47.4679 23.5301 47.4691H23.5399C36.4053 47.4691 46.8782 36.8251 46.883 23.7433C46.8856 17.4035 44.4598 11.4426 40.0523 6.95823ZM23.5396 43.4622H23.5315C20.0501 43.4607 16.6358 42.5098 13.6564 40.7134L12.9482 40.2858L5.60477 42.2438L7.56484 34.9668L7.10336 34.2207C5.16111 31.0809 4.1355 27.4518 4.13723 23.7258C4.14125 12.853 12.8453 4.00719 23.5473 4.00719C28.7297 4.00894 33.6013 6.06281 37.2644 9.79032C40.9275 13.5178 42.9436 18.4725 42.9419 23.7418C42.9373 34.6155 34.2339 43.4622 23.5396 43.4622ZM34.1821 28.6927C33.599 28.3958 30.7312 26.962 30.1964 26.7639C29.6622 26.5661 29.2729 26.4676 28.8844 27.0608C28.4954 27.6541 27.3778 28.9896 27.0373 29.385C26.6969 29.7807 26.357 29.8304 25.7737 29.5335C25.1903 29.2368 23.311 28.6106 21.0829 26.5909C19.3491 25.0189 18.1786 23.0776 17.8382 22.4843C17.4983 21.8905 17.8353 21.6006 18.0941 21.2745C18.7255 20.4775 19.3578 19.642 19.5521 19.2466C19.7468 18.8509 19.6493 18.5046 19.5033 18.208C19.3578 17.9114 18.1913 14.9934 17.7054 13.806C17.2315 12.6505 16.751 12.8065 16.3928 12.7884C16.0529 12.7712 15.6639 12.7677 15.2749 12.7677C14.8861 12.7677 14.2542 12.9158 13.7194 13.5097C13.1848 14.1032 11.6782 15.5372 11.6782 18.4552C11.6782 21.3732 13.7682 24.1922 14.0598 24.5879C14.3513 24.9836 18.1729 30.9716 24.0238 33.5392C25.4154 34.1506 26.5017 34.515 27.349 34.7882C28.7464 35.2394 30.0176 35.1757 31.0228 35.0232C32.1435 34.8528 34.4734 33.5889 34.9599 32.2042C35.4458 30.8193 35.4458 29.6325 35.2997 29.385C35.1542 29.1378 34.7652 28.9896 34.1821 28.6927Z" fill="#E6F482"/>
</svg>
